ISO-10303-21;
HEADER;
FILE_DESCRIPTION(('Open CASCADE Model'),'2;1');
FILE_NAME('Open CASCADE Shape Model','2026-09-08T23:20:57',('Author'),(
    'Open CASCADE'),'Open CASCADE STEP processor 7.9','Open CASCADE 7.9'
  ,'Unknown');
FILE_SCHEMA(('AUTOMOTIVE_DESIGN { 1 0 10303 214 1 1 1 1 }'));
ENDSEC;
DATA;
#1 = APPLICATION_PROTOCOL_DEFINITION('international standard',
  'automotive_design',2000,#2);
#2 = APPLICATION_CONTEXT(
  'core data for automotive mechanical design processes');
#3 = SHAPE_DEFINITION_REPRESENTATION(#4,#10);
#4 = PRODUCT_DEFINITION_SHAPE('','',#5);
#5 = PRODUCT_DEFINITION('design','',#6,#9);
#6 = PRODUCT_DEFINITION_FORMATION('','',#7);
#7 = PRODUCT('Open CASCADE STEP translator 7.9 2',
  'Open CASCADE STEP translator 7.9 2','',(#8));
#8 = PRODUCT_CONTEXT('',#2,'mechanical');
#9 = PRODUCT_DEFINITION_CONTEXT('part definition',#2,'design');
#10 = ADVANCED_BREP_SHAPE_REPRESENTATION('',(#11,#15),#1403);
#11 = AXIS2_PLACEMENT_3D('',#12,#13,#14);
#12 = CARTESIAN_POINT('',(0.,0.,0.));
#13 = DIRECTION('',(0.,0.,1.));
#14 = DIRECTION('',(1.,0.,-0.));
#15 = MANIFOLD_SOLID_BREP('',#16);
#16 = CLOSED_SHELL('',(#17,#303,#588,#795,#1002,#1126,#1224,#1279,#1286,
    #1333,#1360,#1387,#1394));
#17 = ADVANCED_FACE('',(#18,#189),#32,.F.);
#18 = FACE_BOUND('',#19,.T.);
#19 = EDGE_LOOP('',(#20,#55,#109,#137));
#20 = ORIENTED_EDGE('',*,*,#21,.T.);
#21 = EDGE_CURVE('',#22,#24,#26,.T.);
#22 = VERTEX_POINT('',#23);
#23 = CARTESIAN_POINT('',(11.465551527965,23.374199410851,
    -10.11118703541));
#24 = VERTEX_POINT('',#25);
#25 = CARTESIAN_POINT('',(-11.46555152796,23.374199410851,
    -10.11118703541));
#26 = SURFACE_CURVE('',#27,(#31,#43),.PCURVE_S1.);
#27 = LINE('',#28,#29);
#28 = CARTESIAN_POINT('',(-13.9106356605,23.374199410851,-10.11118703541
    ));
#29 = VECTOR('',#30,1.);
#30 = DIRECTION('',(-1.,0.,0.));
#31 = PCURVE('',#32,#37);
#32 = PLANE('',#33);
#33 = AXIS2_PLACEMENT_3D('',#34,#35,#36);
#34 = CARTESIAN_POINT('',(-13.9106356605,-0.5,-25.61527341432));
#35 = DIRECTION('',(0.,0.544639035015,-0.838670567945));
#36 = DIRECTION('',(0.,0.838670567945,0.544639035015));
#37 = DEFINITIONAL_REPRESENTATION('',(#38),#42);
#38 = LINE('',#39,#40);
#39 = CARTESIAN_POINT('',(28.466719023344,0.));
#40 = VECTOR('',#41,1.);
#41 = DIRECTION('',(0.,-1.));
#42 = ( GEOMETRIC_REPRESENTATION_CONTEXT(2) 
PARAMETRIC_REPRESENTATION_CONTEXT() REPRESENTATION_CONTEXT('2D SPACE',''
  ) );
#43 = PCURVE('',#44,#49);
#44 = PLANE('',#45);
#45 = AXIS2_PLACEMENT_3D('',#46,#47,#48);
#46 = CARTESIAN_POINT('',(-13.9006356605,24.463477480881,-11.7885281713)
  );
#47 = DIRECTION('',(0.,-0.838670567945,-0.544639035015));
#48 = DIRECTION('',(0.,0.544639035015,-0.838670567945));
#49 = DEFINITIONAL_REPRESENTATION('',(#50),#54);
#50 = LINE('',#51,#52);
#51 = CARTESIAN_POINT('',(-2.,-1.E-02));
#52 = VECTOR('',#53,1.);
#53 = DIRECTION('',(0.,-1.));
#54 = ( GEOMETRIC_REPRESENTATION_CONTEXT(2) 
PARAMETRIC_REPRESENTATION_CONTEXT() REPRESENTATION_CONTEXT('2D SPACE',''
  ) );
#55 = ORIENTED_EDGE('',*,*,#56,.T.);
#56 = EDGE_CURVE('',#24,#57,#59,.T.);
#57 = VERTEX_POINT('',#58);
#58 = CARTESIAN_POINT('',(-10.16226774207,-0.5,-25.61527341432));
#59 = SURFACE_CURVE('',#60,(#65,#73),.PCURVE_S1.);
#60 = B_SPLINE_CURVE_WITH_KNOTS('',3,(#61,#62,#63,#64),.UNSPECIFIED.,.F.
  ,.F.,(4,4),(1.500437031525E-04,2.864793995198E-02),
  .PIECEWISE_BEZIER_KNOTS.);
#61 = CARTESIAN_POINT('',(-11.46555152796,23.374199410851,
    -10.11118703541));
#62 = CARTESIAN_POINT('',(-11.2209718147,15.409765241857,-15.28335106027
    ));
#63 = CARTESIAN_POINT('',(-10.79440997004,7.449447917147,-20.4528415752)
  );
#64 = CARTESIAN_POINT('',(-10.16226774207,-0.5,-25.61527341432));
#65 = PCURVE('',#32,#66);
#66 = DEFINITIONAL_REPRESENTATION('',(#67),#72);
#67 = B_SPLINE_CURVE_WITH_KNOTS('',3,(#68,#69,#70,#71),.UNSPECIFIED.,.F.
  ,.F.,(4,4),(1.500437031525E-04,2.864793995198E-02),
  .PIECEWISE_BEZIER_KNOTS.);
#68 = CARTESIAN_POINT('',(28.466719023344,2.445084132541));
#69 = CARTESIAN_POINT('',(18.970220072028,2.689663845801));
#70 = CARTESIAN_POINT('',(9.478629894718,3.11622569046));
#71 = CARTESIAN_POINT('',(0.,3.74836791843));
#72 = ( GEOMETRIC_REPRESENTATION_CONTEXT(2) 
PARAMETRIC_REPRESENTATION_CONTEXT() REPRESENTATION_CONTEXT('2D SPACE',''
  ) );
#73 = PCURVE('',#74,#81);
#74 = B_SPLINE_SURFACE_WITH_KNOTS('',2,1,(
    (#75,#76)
    ,(#77,#78)
    ,(#79,#80
    )),.UNSPECIFIED.,.F.,.F.,.F.,(3,3),(2,2),(3.24269190948E-03,
    1.019200010841),(0.,1.),.PIECEWISE_BEZIER_KNOTS.);
#75 = CARTESIAN_POINT('',(-11.49747046104,24.449635131741,-27.7047902646
    ));
#76 = CARTESIAN_POINT('',(-11.49747046104,24.449635131741,
    -10.00625500819));
#77 = CARTESIAN_POINT('',(-11.13201040479,11.694911918864,-27.7047902646
    ));
#78 = CARTESIAN_POINT('',(-11.13201040479,11.694911918864,
    -10.00625500819));
#79 = CARTESIAN_POINT('',(-10.16226774207,-0.5,-27.7047902646));
#80 = CARTESIAN_POINT('',(-10.16226774207,-0.5,-10.00625500819));
#81 = DEFINITIONAL_REPRESENTATION('',(#82),#108);
#82 = B_SPLINE_CURVE_WITH_KNOTS('',3,(#83,#84,#85,#86,#87,#88,#89,#90,
    #91,#92,#93,#94,#95,#96,#97,#98,#99,#100,#101,#102,#103,#104,#105,
    #106,#107),.UNSPECIFIED.,.F.,.F.,(4,1,1,1,1,1,1,1,1,1,1,1,1,1,1,1,1,
    1,1,1,1,1,4),(1.500437031525E-04,1.445402623554E-03,
    2.740761543955E-03,4.036120464356E-03,5.331479384758E-03,
    6.626838305159E-03,7.92219722556E-03,9.217556145962E-03,
    1.051291506636E-02,1.180827398676E-02,1.310363290717E-02,
    1.439899182757E-02,1.569435074797E-02,1.698970966837E-02,
    1.828506858877E-02,1.958042750917E-02,2.087578642957E-02,
    2.217114534997E-02,2.346650427038E-02,2.476186319078E-02,
    2.605722211118E-02,2.735258103158E-02,2.864793995198E-02),
  .QUASI_UNIFORM_KNOTS.);
#83 = CARTESIAN_POINT('',(4.61134579692E-02,0.994071146245));
#84 = CARTESIAN_POINT('',(6.055826588512E-02,0.980787653495));
#85 = CARTESIAN_POINT('',(8.947429260132E-02,0.954221292202));
#86 = CARTESIAN_POINT('',(0.13292786483,0.914373762501));
#87 = CARTESIAN_POINT('',(0.176461267438,0.874528384653));
#88 = CARTESIAN_POINT('',(0.220074803121,0.834685298273));
#89 = CARTESIAN_POINT('',(0.26376877752,0.794844642976));
#90 = CARTESIAN_POINT('',(0.307543499635,0.755006558377));
#91 = CARTESIAN_POINT('',(0.351399281721,0.71517118409));
#92 = CARTESIAN_POINT('',(0.395336439321,0.675338659731));
#93 = CARTESIAN_POINT('',(0.43935529126,0.635509124915));
#94 = CARTESIAN_POINT('',(0.483456159652,0.595682719256));
#95 = CARTESIAN_POINT('',(0.527639369897,0.555859582369));
#96 = CARTESIAN_POINT('',(0.571905250685,0.51603985387));
#97 = CARTESIAN_POINT('',(0.616254133988,0.476223673374));
#98 = CARTESIAN_POINT('',(0.660686355066,0.436411180494));
#99 = CARTESIAN_POINT('',(0.705202252456,0.396602514848));
#100 = CARTESIAN_POINT('',(0.749802167971,0.356797816048));
#101 = CARTESIAN_POINT('',(0.79448644669,0.31699722371));
#102 = CARTESIAN_POINT('',(0.839255436959,0.27720087745));
#103 = CARTESIAN_POINT('',(0.884109490354,0.237408916881));
#104 = CARTESIAN_POINT('',(0.929048961775,0.19762148162));
#105 = CARTESIAN_POINT('',(0.97407420903,0.157838711281));
#106 = CARTESIAN_POINT('',(1.004148465903,0.131320067412));
#107 = CARTESIAN_POINT('',(1.019200010841,0.118061569503));
#108 = ( GEOMETRIC_REPRESENTATION_CONTEXT(2) 
PARAMETRIC_REPRESENTATION_CONTEXT() REPRESENTATION_CONTEXT('2D SPACE',''
  ) );
#109 = ORIENTED_EDGE('',*,*,#110,.T.);
#110 = EDGE_CURVE('',#57,#111,#113,.T.);
#111 = VERTEX_POINT('',#112);
#112 = CARTESIAN_POINT('',(10.162267742076,-0.5,-25.61527341432));
#113 = SURFACE_CURVE('',#114,(#118,#125),.PCURVE_S1.);
#114 = LINE('',#115,#116);
#115 = CARTESIAN_POINT('',(-40.,-0.5,-25.61527341432));
#116 = VECTOR('',#117,1.);
#117 = DIRECTION('',(1.,0.,0.));
#118 = PCURVE('',#32,#119);
#119 = DEFINITIONAL_REPRESENTATION('',(#120),#124);
#120 = LINE('',#121,#122);
#121 = CARTESIAN_POINT('',(1.862222749217E-16,-26.08936433949));
#122 = VECTOR('',#123,1.);
#123 = DIRECTION('',(0.,1.));
#124 = ( GEOMETRIC_REPRESENTATION_CONTEXT(2) 
PARAMETRIC_REPRESENTATION_CONTEXT() REPRESENTATION_CONTEXT('2D SPACE',''
  ) );
#125 = PCURVE('',#126,#131);
#126 = PLANE('',#127);
#127 = AXIS2_PLACEMENT_3D('',#128,#129,#130);
#128 = CARTESIAN_POINT('',(-40.,-0.5,-8.3));
#129 = DIRECTION('',(0.,-1.,0.));
#130 = DIRECTION('',(0.,-0.,-1.));
#131 = DEFINITIONAL_REPRESENTATION('',(#132),#136);
#132 = LINE('',#133,#134);
#133 = CARTESIAN_POINT('',(17.315273414328,0.));
#134 = VECTOR('',#135,1.);
#135 = DIRECTION('',(0.,1.));
#136 = ( GEOMETRIC_REPRESENTATION_CONTEXT(2) 
PARAMETRIC_REPRESENTATION_CONTEXT() REPRESENTATION_CONTEXT('2D SPACE',''
  ) );
#137 = ORIENTED_EDGE('',*,*,#138,.T.);
#138 = EDGE_CURVE('',#111,#22,#139,.T.);
#139 = SURFACE_CURVE('',#140,(#145,#153),.PCURVE_S1.);
#140 = B_SPLINE_CURVE_WITH_KNOTS('',3,(#141,#142,#143,#144),
  .UNSPECIFIED.,.F.,.F.,(4,4),(0.,2.849779842182E-02),
  .PIECEWISE_BEZIER_KNOTS.);
#141 = CARTESIAN_POINT('',(10.162267742076,-0.5,-25.61527341432));
#142 = CARTESIAN_POINT('',(10.79441103162,7.449461266869,-20.45283290579
    ));
#143 = CARTESIAN_POINT('',(11.220971274436,15.409747648669,
    -15.28336248542));
#144 = CARTESIAN_POINT('',(11.465551527965,23.374199410851,
    -10.11118703541));
#145 = PCURVE('',#32,#146);
#146 = DEFINITIONAL_REPRESENTATION('',(#147),#152);
#147 = B_SPLINE_CURVE_WITH_KNOTS('',3,(#148,#149,#150,#151),
  .UNSPECIFIED.,.F.,.F.,(4,4),(0.,2.849779842182E-02),
  .PIECEWISE_BEZIER_KNOTS.);
#148 = CARTESIAN_POINT('',(0.,24.072903402582));
#149 = CARTESIAN_POINT('',(9.478645812436,24.705046692126));
#150 = CARTESIAN_POINT('',(18.970199094555,25.131606934942));
#151 = CARTESIAN_POINT('',(28.466719023344,25.376187188472));
#152 = ( GEOMETRIC_REPRESENTATION_CONTEXT(2) 
PARAMETRIC_REPRESENTATION_CONTEXT() REPRESENTATION_CONTEXT('2D SPACE',''
  ) );
#153 = PCURVE('',#154,#161);
#154 = B_SPLINE_SURFACE_WITH_KNOTS('',2,1,(
    (#155,#156)
    ,(#157,#158)
    ,(#159,#160
    )),.UNSPECIFIED.,.F.,.F.,.F.,(3,3),(2,2),(4.816201427992E-05,
    1.016005480946),(0.,1.),.PIECEWISE_BEZIER_KNOTS.);
#155 = CARTESIAN_POINT('',(10.162267742076,-0.5,-27.7047902646));
#156 = CARTESIAN_POINT('',(10.162267742076,-0.5,-10.00625500819));
#157 = CARTESIAN_POINT('',(11.132010404791,11.694911918864,
    -27.7047902646));
#158 = CARTESIAN_POINT('',(11.132010404791,11.694911918864,
    -10.00625500819));
#159 = CARTESIAN_POINT('',(11.497470461045,24.449635131741,
    -27.7047902646));
#160 = CARTESIAN_POINT('',(11.497470461045,24.449635131741,
    -10.00625500819));
#161 = DEFINITIONAL_REPRESENTATION('',(#162),#188);
#162 = B_SPLINE_CURVE_WITH_KNOTS('',3,(#163,#164,#165,#166,#167,#168,
    #169,#170,#171,#172,#173,#174,#175,#176,#177,#178,#179,#180,#181,
    #182,#183,#184,#185,#186,#187),.UNSPECIFIED.,.F.,.F.,(4,1,1,1,1,1,1,
    1,1,1,1,1,1,1,1,1,1,1,1,1,1,1,4),(0.,1.295354473719E-03,
    2.590708947439E-03,3.886063421158E-03,5.181417894877E-03,
    6.476772368596E-03,7.772126842316E-03,9.067481316035E-03,
    1.036283578975E-02,1.165819026347E-02,1.295354473719E-02,
    1.424889921091E-02,1.554425368463E-02,1.683960815835E-02,
    1.813496263207E-02,1.943031710579E-02,2.072567157951E-02,
    2.202102605323E-02,2.331638052695E-02,2.461173500067E-02,
    2.590708947439E-02,2.72024439481E-02,2.849779842182E-02),
  .QUASI_UNIFORM_KNOTS.);
#163 = CARTESIAN_POINT('',(4.816201427992E-05,0.118061569503));
#164 = CARTESIAN_POINT('',(1.509973222782E-02,0.131320089678));
#165 = CARTESIAN_POINT('',(4.517403194972E-02,0.157838771361));
#166 = CARTESIAN_POINT('',(9.019932264887E-02,0.197621580195));
#167 = CARTESIAN_POINT('',(0.135138818962,0.237409037642));
#168 = CARTESIAN_POINT('',(0.179992880956,0.277201006006));
#169 = CARTESIAN_POINT('',(0.224761865777,0.316997347593));
#170 = CARTESIAN_POINT('',(0.269446127226,0.356797924706));
#171 = CARTESIAN_POINT('',(0.314046015863,0.39660259965));
#172 = CARTESIAN_POINT('',(0.358561878963,0.436411234729));
#173 = CARTESIAN_POINT('',(0.402994060522,0.476223692247));
#174 = CARTESIAN_POINT('',(0.447342901242,0.516039834509));
#175 = CARTESIAN_POINT('',(0.491608738532,0.555859523819));
#176 = CARTESIAN_POINT('',(0.5357919065,0.595682622482));
#177 = CARTESIAN_POINT('',(0.579892735954,0.635508992802));
#178 = CARTESIAN_POINT('',(0.623911554397,0.675338497083));
#179 = CARTESIAN_POINT('',(0.66784868603,0.715170997629));
#180 = CARTESIAN_POINT('',(0.711704451751,0.755006356746));
#181 = CARTESIAN_POINT('',(0.75547916916,0.794844436737));
#182 = CARTESIAN_POINT('',(0.799173152552,0.834685099907));
#183 = CARTESIAN_POINT('',(0.842786712952,0.87452820856));
#184 = CARTESIAN_POINT('',(0.886320158011,0.914373625001));
#185 = CARTESIAN_POINT('',(0.929773792421,0.954221211533));
#186 = CARTESIAN_POINT('',(0.958689875061,0.980787624152));
#187 = CARTESIAN_POINT('',(0.973134714886,0.994071146245));
#188 = ( GEOMETRIC_REPRESENTATION_CONTEXT(2) 
PARAMETRIC_REPRESENTATION_CONTEXT() REPRESENTATION_CONTEXT('2D SPACE',''
  ) );
#189 = FACE_BOUND('',#190,.T.);
#190 = EDGE_LOOP('',(#191,#221,#249,#277));
#191 = ORIENTED_EDGE('',*,*,#192,.F.);
#192 = EDGE_CURVE('',#193,#195,#197,.T.);
#193 = VERTEX_POINT('',#194);
#194 = CARTESIAN_POINT('',(-9.,22.409728257714,-10.73752192567));
#195 = VERTEX_POINT('',#196);
#196 = CARTESIAN_POINT('',(-9.,21.571057689768,-11.28216096069));
#197 = SURFACE_CURVE('',#198,(#202,#209),.PCURVE_S1.);
#198 = LINE('',#199,#200);
#199 = CARTESIAN_POINT('',(-9.,22.409728257714,-10.73752192567));
#200 = VECTOR('',#201,1.);
#201 = DIRECTION('',(0.,-0.838670567945,-0.544639035015));
#202 = PCURVE('',#32,#203);
#203 = DEFINITIONAL_REPRESENTATION('',(#204),#208);
#204 = LINE('',#205,#206);
#205 = CARTESIAN_POINT('',(27.316719023344,4.910635660506));
#206 = VECTOR('',#207,1.);
#207 = DIRECTION('',(-1.,0.));
#208 = ( GEOMETRIC_REPRESENTATION_CONTEXT(2) 
PARAMETRIC_REPRESENTATION_CONTEXT() REPRESENTATION_CONTEXT('2D SPACE',''
  ) );
#209 = PCURVE('',#210,#215);
#210 = PLANE('',#211);
#211 = AXIS2_PLACEMENT_3D('',#212,#213,#214);
#212 = CARTESIAN_POINT('',(-9.,23.499006327744,-12.41486306156));
#213 = DIRECTION('',(-1.,0.,-0.));
#214 = DIRECTION('',(0.,0.,1.));
#215 = DEFINITIONAL_REPRESENTATION('',(#216),#220);
#216 = LINE('',#217,#218);
#217 = CARTESIAN_POINT('',(1.677341135891,-1.08927807003));
#218 = VECTOR('',#219,1.);
#219 = DIRECTION('',(-0.544639035015,-0.838670567945));
#220 = ( GEOMETRIC_REPRESENTATION_CONTEXT(2) 
PARAMETRIC_REPRESENTATION_CONTEXT() REPRESENTATION_CONTEXT('2D SPACE',''
  ) );
#221 = ORIENTED_EDGE('',*,*,#222,.F.);
#222 = EDGE_CURVE('',#223,#193,#225,.T.);
#223 = VERTEX_POINT('',#224);
#224 = CARTESIAN_POINT('',(9.,22.409728257714,-10.73752192567));
#225 = SURFACE_CURVE('',#226,(#230,#237),.PCURVE_S1.);
#226 = LINE('',#227,#228);
#227 = CARTESIAN_POINT('',(0.,22.409728257714,-10.73752192567));
#228 = VECTOR('',#229,1.);
#229 = DIRECTION('',(-1.,-0.,-0.));
#230 = PCURVE('',#32,#231);
#231 = DEFINITIONAL_REPRESENTATION('',(#232),#236);
#232 = LINE('',#233,#234);
#233 = CARTESIAN_POINT('',(27.316719023344,13.910635660506));
#234 = VECTOR('',#235,1.);
#235 = DIRECTION('',(0.,-1.));
#236 = ( GEOMETRIC_REPRESENTATION_CONTEXT(2) 
PARAMETRIC_REPRESENTATION_CONTEXT() REPRESENTATION_CONTEXT('2D SPACE',''
  ) );
#237 = PCURVE('',#238,#243);
#238 = PLANE('',#239);
#239 = AXIS2_PLACEMENT_3D('',#240,#241,#242);
#240 = CARTESIAN_POINT('',(0.,23.499006327744,-12.41486306156));
#241 = DIRECTION('',(-0.,0.838670567945,0.544639035015));
#242 = DIRECTION('',(0.,-0.544639035015,0.838670567945));
#243 = DEFINITIONAL_REPRESENTATION('',(#244),#248);
#244 = LINE('',#245,#246);
#245 = CARTESIAN_POINT('',(2.,0.));
#246 = VECTOR('',#247,1.);
#247 = DIRECTION('',(0.,-1.));
#248 = ( GEOMETRIC_REPRESENTATION_CONTEXT(2) 
PARAMETRIC_REPRESENTATION_CONTEXT() REPRESENTATION_CONTEXT('2D SPACE',''
  ) );
#249 = ORIENTED_EDGE('',*,*,#250,.F.);
#250 = EDGE_CURVE('',#251,#223,#253,.T.);
#251 = VERTEX_POINT('',#252);
#252 = CARTESIAN_POINT('',(9.,21.571057689768,-11.28216096069));
#253 = SURFACE_CURVE('',#254,(#258,#265),.PCURVE_S1.);
#254 = LINE('',#255,#256);
#255 = CARTESIAN_POINT('',(9.,22.409728257714,-10.73752192567));
#256 = VECTOR('',#257,1.);
#257 = DIRECTION('',(-0.,0.838670567945,0.544639035015));
#258 = PCURVE('',#32,#259);
#259 = DEFINITIONAL_REPRESENTATION('',(#260),#264);
#260 = LINE('',#261,#262);
#261 = CARTESIAN_POINT('',(27.316719023344,22.910635660506));
#262 = VECTOR('',#263,1.);
#263 = DIRECTION('',(1.,0.));
#264 = ( GEOMETRIC_REPRESENTATION_CONTEXT(2) 
PARAMETRIC_REPRESENTATION_CONTEXT() REPRESENTATION_CONTEXT('2D SPACE',''
  ) );
#265 = PCURVE('',#266,#271);
#266 = PLANE('',#267);
#267 = AXIS2_PLACEMENT_3D('',#268,#269,#270);
#268 = CARTESIAN_POINT('',(9.,23.499006327744,-12.41486306156));
#269 = DIRECTION('',(1.,0.,0.));
#270 = DIRECTION('',(0.,0.,-1.));
#271 = DEFINITIONAL_REPRESENTATION('',(#272),#276);
#272 = LINE('',#273,#274);
#273 = CARTESIAN_POINT('',(-1.677341135891,-1.08927807003));
#274 = VECTOR('',#275,1.);
#275 = DIRECTION('',(-0.544639035015,0.838670567945));
#276 = ( GEOMETRIC_REPRESENTATION_CONTEXT(2) 
PARAMETRIC_REPRESENTATION_CONTEXT() REPRESENTATION_CONTEXT('2D SPACE',''
  ) );
#277 = ORIENTED_EDGE('',*,*,#278,.F.);
#278 = EDGE_CURVE('',#195,#251,#279,.T.);
#279 = SURFACE_CURVE('',#280,(#284,#291),.PCURVE_S1.);
#280 = LINE('',#281,#282);
#281 = CARTESIAN_POINT('',(9.,21.571057689768,-11.28216096069));
#282 = VECTOR('',#283,1.);
#283 = DIRECTION('',(1.,-0.,-0.));
#284 = PCURVE('',#32,#285);
#285 = DEFINITIONAL_REPRESENTATION('',(#286),#290);
#286 = LINE('',#287,#288);
#287 = CARTESIAN_POINT('',(26.316719023344,22.910635660506));
#288 = VECTOR('',#289,1.);
#289 = DIRECTION('',(0.,1.));
#290 = ( GEOMETRIC_REPRESENTATION_CONTEXT(2) 
PARAMETRIC_REPRESENTATION_CONTEXT() REPRESENTATION_CONTEXT('2D SPACE',''
  ) );
#291 = PCURVE('',#292,#297);
#292 = PLANE('',#293);
#293 = AXIS2_PLACEMENT_3D('',#294,#295,#296);
#294 = CARTESIAN_POINT('',(9.,22.660335759798,-12.95950209658));
#295 = DIRECTION('',(0.,-0.838670567945,-0.544639035015));
#296 = DIRECTION('',(0.,0.544639035015,-0.838670567945));
#297 = DEFINITIONAL_REPRESENTATION('',(#298),#302);
#298 = LINE('',#299,#300);
#299 = CARTESIAN_POINT('',(-2.,0.));
#300 = VECTOR('',#301,1.);
#301 = DIRECTION('',(0.,1.));
#302 = ( GEOMETRIC_REPRESENTATION_CONTEXT(2) 
PARAMETRIC_REPRESENTATION_CONTEXT() REPRESENTATION_CONTEXT('2D SPACE',''
  ) );
#303 = ADVANCED_FACE('',(#304,#494),#318,.T.);
#304 = FACE_BOUND('',#305,.T.);
#305 = EDGE_LOOP('',(#306,#336,#402,#430));
#306 = ORIENTED_EDGE('',*,*,#307,.T.);
#307 = EDGE_CURVE('',#308,#310,#312,.T.);
#308 = VERTEX_POINT('',#309);
#309 = CARTESIAN_POINT('',(-11.19303845179,24.463477480881,
    -11.7885281713));
#310 = VERTEX_POINT('',#311);
#311 = CARTESIAN_POINT('',(11.193038451791,24.463477480881,
    -11.7885281713));
#312 = SURFACE_CURVE('',#313,(#317,#329),.PCURVE_S1.);
#313 = LINE('',#314,#315);
#314 = CARTESIAN_POINT('',(-13.9006356605,24.463477480881,-11.7885281713
    ));
#315 = VECTOR('',#316,1.);
#316 = DIRECTION('',(1.,-0.,-0.));
#317 = PCURVE('',#318,#323);
#318 = PLANE('',#319);
#319 = AXIS2_PLACEMENT_3D('',#320,#321,#322);
#320 = CARTESIAN_POINT('',(-12.65701411347,-0.5,-28.));
#321 = DIRECTION('',(0.,0.544639035015,-0.838670567945));
#322 = DIRECTION('',(0.,0.838670567945,0.544639035015));
#323 = DEFINITIONAL_REPRESENTATION('',(#324),#328);
#324 = LINE('',#325,#326);
#325 = CARTESIAN_POINT('',(29.76553420974,-1.243621547033));
#326 = VECTOR('',#327,1.);
#327 = DIRECTION('',(0.,1.));
#328 = ( GEOMETRIC_REPRESENTATION_CONTEXT(2) 
PARAMETRIC_REPRESENTATION_CONTEXT() REPRESENTATION_CONTEXT('2D SPACE',''
  ) );
#329 = PCURVE('',#44,#330);
#330 = DEFINITIONAL_REPRESENTATION('',(#331),#335);
#331 = LINE('',#332,#333);
#332 = CARTESIAN_POINT('',(0.,0.));
#333 = VECTOR('',#334,1.);
#334 = DIRECTION('',(0.,1.));
#335 = ( GEOMETRIC_REPRESENTATION_CONTEXT(2) 
PARAMETRIC_REPRESENTATION_CONTEXT() REPRESENTATION_CONTEXT('2D SPACE',''
  ) );
#336 = ORIENTED_EDGE('',*,*,#337,.T.);
#337 = EDGE_CURVE('',#310,#338,#340,.T.);
#338 = VERTEX_POINT('',#339);
#339 = CARTESIAN_POINT('',(9.885093570928,-3.660828949549E-02,
    -27.69906990457));
#340 = SURFACE_CURVE('',#341,(#346,#354),.PCURVE_S1.);
#341 = B_SPLINE_CURVE_WITH_KNOTS('',3,(#342,#343,#344,#345),
  .UNSPECIFIED.,.F.,.F.,(4,4),(2.84236133605E-04,2.952918717953E-02),
  .PIECEWISE_BEZIER_KNOTS.);
#342 = CARTESIAN_POINT('',(11.193038451791,24.463477480881,
    -11.7885281713));
#343 = CARTESIAN_POINT('',(10.956384526959,16.290235332205,
    -17.09629368369));
#344 = CARTESIAN_POINT('',(10.528892260868,8.121228365309,
    -22.40130883687));
#345 = CARTESIAN_POINT('',(9.885093570928,-3.660828949549E-02,
    -27.69906990457));
#346 = PCURVE('',#318,#347);
#347 = DEFINITIONAL_REPRESENTATION('',(#348),#353);
#348 = B_SPLINE_CURVE_WITH_KNOTS('',3,(#349,#350,#351,#352),
  .UNSPECIFIED.,.F.,.F.,(4,4),(2.84236133605E-04,2.952918717953E-02),
  .PIECEWISE_BEZIER_KNOTS.);
#349 = CARTESIAN_POINT('',(29.76553420974,23.850052565264));
#350 = CARTESIAN_POINT('',(20.020060288199,23.613398640433));
#351 = CARTESIAN_POINT('',(10.279636241951,23.185906374342));
#352 = CARTESIAN_POINT('',(0.55253126581,22.542107684401));
#353 = ( GEOMETRIC_REPRESENTATION_CONTEXT(2) 
PARAMETRIC_REPRESENTATION_CONTEXT() REPRESENTATION_CONTEXT('2D SPACE',''
  ) );
#354 = PCURVE('',#355,#374);
#355 = ( BOUNDED_SURFACE() B_SPLINE_SURFACE(3,2,(
    (#356,#357,#358)
    ,(#359,#360,#361)
    ,(#362,#363,#364)
    ,(#365,#366,#367)
    ,(#368,#369,#370)
    ,(#371,#372,#373
)),.UNSPECIFIED.,.F.,.F.,.F.) B_SPLINE_SURFACE_WITH_KNOTS((4,2,4),(3,3),
  (1.268097032611E-02,2.762517163668E-02,4.256937294725E-02),(0.,1.),
.UNSPECIFIED.) GEOMETRIC_REPRESENTATION_ITEM() RATIONAL_B_SPLINE_SURFACE
((
    (1.,0.691674217503,1.)
    ,(1.,0.691674217503,1.)
    ,(1.,0.695116535445,1.)
    ,(1.,0.698426863169,1.)
    ,(1.,0.700024275387,1.)
,(1.,0.701568712756,1.))) REPRESENTATION_ITEM('') SURFACE() );
#356 = CARTESIAN_POINT('',(9.854653556557,-0.420450553982,
    -27.94833998572));
#357 = CARTESIAN_POINT('',(10.167203397843,-0.43793210338,
    -27.95969263664));
#358 = CARTESIAN_POINT('',(10.153709510492,-0.607623274058,
    -27.69673881533));
#359 = CARTESIAN_POINT('',(10.186124536577,3.747933039424,-25.2413600288
    ));
#360 = CARTESIAN_POINT('',(10.498825539055,3.732352404472,
    -25.25147821144));
#361 = CARTESIAN_POINT('',(10.485325089593,3.562578712049,-24.9885779804
    ));
#362 = CARTESIAN_POINT('',(10.462885004868,7.919334518443,
    -22.53242023405));
#363 = CARTESIAN_POINT('',(10.772210937743,7.895918079147,
    -22.54762704747));
#364 = CARTESIAN_POINT('',(10.762323310629,7.737417795217,
    -22.28081906364));
#365 = CARTESIAN_POINT('',(10.908243954928,16.266292134579,
    -17.11184257803));
#366 = CARTESIAN_POINT('',(11.214920052171,16.246714175778,
    -17.1245566532));
#367 = CARTESIAN_POINT('',(11.207953414615,16.089457403412,
    -16.86024140768));
#368 = CARTESIAN_POINT('',(11.077795555367,20.441576302632,
    -14.40038133554));
#369 = CARTESIAN_POINT('',(11.383435900914,20.424484189687,
    -14.41148108357));
#370 = CARTESIAN_POINT('',(11.377604006586,20.267202946474,
    -14.14878016967));
#371 = CARTESIAN_POINT('',(11.197494499663,24.618163254698,
    -11.68807405522));
#372 = CARTESIAN_POINT('',(11.50212441422,24.612022466109,
    -11.69206192996));
#373 = CARTESIAN_POINT('',(11.497371370363,24.446177219387,
    -11.43647288484));
#374 = DEFINITIONAL_REPRESENTATION('',(#375),#401);
#375 = B_SPLINE_CURVE_WITH_KNOTS('',3,(#376,#377,#378,#379,#380,#381,
    #382,#383,#384,#385,#386,#387,#388,#389,#390,#391,#392,#393,#394,
    #395,#396,#397,#398,#399,#400),.UNSPECIFIED.,.F.,.F.,(4,1,1,1,1,1,1,
    1,1,1,1,1,1,1,1,1,1,1,1,1,1,1,4),(2.84236133605E-04,
    1.613552090238E-03,2.942868046871E-03,4.272184003504E-03,
    5.601499960137E-03,6.93081591677E-03,8.260131873403E-03,
    9.589447830036E-03,1.091876378667E-02,1.22480797433E-02,
    1.357739569994E-02,1.490671165657E-02,1.62360276132E-02,
    1.756534356983E-02,1.889465952647E-02,2.02239754831E-02,
    2.155329143973E-02,2.288260739637E-02,2.4211923353E-02,
    2.554123930963E-02,2.687055526627E-02,2.81998712229E-02,
    2.952918717953E-02),.QUASI_UNIFORM_KNOTS.);
#376 = CARTESIAN_POINT('',(4.238487906186E-02,0.));
#377 = CARTESIAN_POINT('',(4.194177578E-02,-1.454526481974E-07));
#378 = CARTESIAN_POINT('',(4.105556540978E-02,2.048006782097E-06));
#379 = CARTESIAN_POINT('',(3.972624056138E-02,1.15115258938E-05));
#380 = CARTESIAN_POINT('',(3.839690854787E-02,2.586737543023E-05));
#381 = CARTESIAN_POINT('',(3.706757149186E-02,4.383887949688E-05));
#382 = CARTESIAN_POINT('',(3.57382315131E-02,6.410202156362E-05));
#383 = CARTESIAN_POINT('',(3.440889072446E-02,8.532453346413E-05));
#384 = CARTESIAN_POINT('',(3.307955124446E-02,1.060594062994E-04));
#385 = CARTESIAN_POINT('',(3.175021515051E-02,1.251300638075E-04));
#386 = CARTESIAN_POINT('',(3.042088465256E-02,1.401944835092E-04));
#387 = CARTESIAN_POINT('',(2.909156144434E-02,1.53101792222E-04));
#388 = CARTESIAN_POINT('',(2.776224912366E-02,1.498998511655E-04));
#389 = CARTESIAN_POINT('',(2.643294415894E-02,1.754461463252E-04));
#390 = CARTESIAN_POINT('',(2.510363462979E-02,2.936417850947E-04));
#391 = CARTESIAN_POINT('',(2.377432250784E-02,4.537315197528E-04));
#392 = CARTESIAN_POINT('',(2.244500659325E-02,6.348889237767E-04));
#393 = CARTESIAN_POINT('',(2.111568722851E-02,8.084310280548E-04));
#394 = CARTESIAN_POINT('',(1.978636470653E-02,9.479441535485E-04));
#395 = CARTESIAN_POINT('',(1.845703907189E-02,1.026547275927E-03));
#396 = CARTESIAN_POINT('',(1.712770951426E-02,1.017587022813E-03));
#397 = CARTESIAN_POINT('',(1.579837418805E-02,8.943894940326E-04));
#398 = CARTESIAN_POINT('',(1.446903023782E-02,6.302777942781E-04));
#399 = CARTESIAN_POINT('',(1.358279366849E-02,3.423422427511E-04));
#400 = CARTESIAN_POINT('',(1.313967315917E-02,1.659391701739E-04));
#401 = ( GEOMETRIC_REPRESENTATION_CONTEXT(2) 
PARAMETRIC_REPRESENTATION_CONTEXT() REPRESENTATION_CONTEXT('2D SPACE',''
  ) );
#402 = ORIENTED_EDGE('',*,*,#403,.T.);
#403 = EDGE_CURVE('',#338,#404,#406,.T.);
#404 = VERTEX_POINT('',#405);
#405 = CARTESIAN_POINT('',(-9.885093570928,-3.660828949549E-02,
    -27.69906990457));
#406 = SURFACE_CURVE('',#407,(#411,#418),.PCURVE_S1.);
#407 = LINE('',#408,#409);
#408 = CARTESIAN_POINT('',(-12.65701411347,-3.660828949549E-02,
    -27.69906990457));
#409 = VECTOR('',#410,1.);
#410 = DIRECTION('',(-1.,0.,0.));
#411 = PCURVE('',#318,#412);
#412 = DEFINITIONAL_REPRESENTATION('',(#413),#417);
#413 = LINE('',#414,#415);
#414 = CARTESIAN_POINT('',(0.55253126581,0.));
#415 = VECTOR('',#416,1.);
#416 = DIRECTION('',(0.,-1.));
#417 = ( GEOMETRIC_REPRESENTATION_CONTEXT(2) 
PARAMETRIC_REPRESENTATION_CONTEXT() REPRESENTATION_CONTEXT('2D SPACE',''
  ) );
#418 = PCURVE('',#419,#424);
#419 = CYLINDRICAL_SURFACE('',#420,0.3);
#420 = AXIS2_PLACEMENT_3D('',#421,#422,#423);
#421 = CARTESIAN_POINT('',(-12.65701411347,-0.2,-27.44746873419));
#422 = DIRECTION('',(-1.,0.,0.));
#423 = DIRECTION('',(0.,0.,1.));
#424 = DEFINITIONAL_REPRESENTATION('',(#425),#429);
#425 = LINE('',#426,#427);
#426 = CARTESIAN_POINT('',(2.565634000432,0.));
#427 = VECTOR('',#428,1.);
#428 = DIRECTION('',(0.,1.));
#429 = ( GEOMETRIC_REPRESENTATION_CONTEXT(2) 
PARAMETRIC_REPRESENTATION_CONTEXT() REPRESENTATION_CONTEXT('2D SPACE',''
  ) );
#430 = ORIENTED_EDGE('',*,*,#431,.T.);
#431 = EDGE_CURVE('',#404,#308,#432,.T.);
#432 = SURFACE_CURVE('',#433,(#438,#446),.PCURVE_S1.);
#433 = B_SPLINE_CURVE_WITH_KNOTS('',3,(#434,#435,#436,#437),
  .UNSPECIFIED.,.F.,.F.,(4,4),(0.,2.924502481008E-02),
  .PIECEWISE_BEZIER_KNOTS.);
#434 = CARTESIAN_POINT('',(-9.885093570928,-3.660828949549E-02,
    -27.69906990457));
#435 = CARTESIAN_POINT('',(-10.5288920845,8.121226130468,-22.4013102882)
  );
#436 = CARTESIAN_POINT('',(-10.95638512189,16.290255879333,
    -17.09628034023));
#437 = CARTESIAN_POINT('',(-11.19303845179,24.463477480881,
    -11.7885281713));
#438 = PCURVE('',#318,#439);
#439 = DEFINITIONAL_REPRESENTATION('',(#440),#445);
#440 = B_SPLINE_CURVE_WITH_KNOTS('',3,(#441,#442,#443,#444),
  .UNSPECIFIED.,.F.,.F.,(4,4),(0.,2.924502481008E-02),
  .PIECEWISE_BEZIER_KNOTS.);
#441 = CARTESIAN_POINT('',(0.55253126581,2.771920542545));
#442 = CARTESIAN_POINT('',(10.279633577208,2.128122028974));
#443 = CARTESIAN_POINT('',(20.020084787839,1.700628991578));
#444 = CARTESIAN_POINT('',(29.76553420974,1.463975661683));
#445 = ( GEOMETRIC_REPRESENTATION_CONTEXT(2) 
PARAMETRIC_REPRESENTATION_CONTEXT() REPRESENTATION_CONTEXT('2D SPACE',''
  ) );
#446 = PCURVE('',#447,#466);
#447 = ( BOUNDED_SURFACE() B_SPLINE_SURFACE(3,2,(
    (#448,#449,#450)
    ,(#451,#452,#453)
    ,(#454,#455,#456)
    ,(#457,#458,#459)
    ,(#460,#461,#462)
    ,(#463,#464,#465
)),.UNSPECIFIED.,.F.,.F.,.F.) B_SPLINE_SURFACE_WITH_KNOTS((4,2,4),(3,3),
  (9.97403203095E-05,1.504330759037E-02,2.998687486043E-02),(0.,1.),
.UNSPECIFIED.) GEOMETRIC_REPRESENTATION_ITEM() RATIONAL_B_SPLINE_SURFACE
((
    (1.,0.701568712016,1.)
    ,(1.,0.700024345152,1.)
    ,(1.,0.698426861885,1.)
    ,(1.,0.695116545803,1.)
    ,(1.,0.691674217503,1.)
,(1.,0.691674217503,1.))) REPRESENTATION_ITEM('') SURFACE() );
#448 = CARTESIAN_POINT('',(-11.1974944423,24.618161253299,
    -11.68807535494));
#449 = CARTESIAN_POINT('',(-11.50212435747,24.612020463879,
    -11.69206323022));
#450 = CARTESIAN_POINT('',(-11.49737131297,24.446175216843,
    -11.43647418456));
#451 = CARTESIAN_POINT('',(-11.07780076253,20.441758550873,
    -14.40026298215));
#452 = CARTESIAN_POINT('',(-11.38344107609,20.424667344891,
    -14.41136214118));
#453 = CARTESIAN_POINT('',(-11.37760921683,20.267385301231,
    -14.14866181473));
#454 = CARTESIAN_POINT('',(-10.90824369857,16.266289154092,
    -17.11184451358));
#455 = CARTESIAN_POINT('',(-11.2149198007,16.246711262744,
    -17.12455854492));
#456 = CARTESIAN_POINT('',(-11.20795315811,16.08945442096,
    -16.86024334322));
#457 = CARTESIAN_POINT('',(-10.46288648205,7.919360379875,
    -22.53240343944));
#458 = CARTESIAN_POINT('',(-10.77221241057,7.895944021959,
    -22.54761020004));
#459 = CARTESIAN_POINT('',(-10.7623247887,7.737443672544,-22.28080226904
    ));
#460 = CARTESIAN_POINT('',(-10.18613777375,3.74809950228,-25.24125192656
    ));
#461 = CARTESIAN_POINT('',(-10.49883878239,3.73251894435,-25.25137005921
    ));
#462 = CARTESIAN_POINT('',(-10.4853383327,3.562745249604,-24.98846982966
    ));
#463 = CARTESIAN_POINT('',(-9.854653730992,-0.420448360391,
    -27.94833856118));
#464 = CARTESIAN_POINT('',(-10.16720357227,-0.43792990979,-27.9596912121
    ));
#465 = CARTESIAN_POINT('',(-10.15370968492,-0.607621080467,
    -27.6967373908));
#466 = DEFINITIONAL_REPRESENTATION('',(#467),#493);
#467 = B_SPLINE_CURVE_WITH_KNOTS('',3,(#468,#469,#470,#471,#472,#473,
    #474,#475,#476,#477,#478,#479,#480,#481,#482,#483,#484,#485,#486,
    #487,#488,#489,#490,#491,#492),.UNSPECIFIED.,.F.,.F.,(4,1,1,1,1,1,1,
    1,1,1,1,1,1,1,1,1,1,1,1,1,1,1,4),(0.,1.329319309549E-03,
    2.658638619099E-03,3.987957928648E-03,5.317277238197E-03,
    6.646596547746E-03,7.975915857296E-03,9.305235166845E-03,
    1.063455447639E-02,1.196387378594E-02,1.329319309549E-02,
    1.462251240504E-02,1.595183171459E-02,1.728115102414E-02,
    1.861047033369E-02,1.993978964324E-02,2.126910895279E-02,
    2.259842826234E-02,2.392774757189E-02,2.525706688144E-02,
    2.658638619099E-02,2.791570550054E-02,2.924502481008E-02),
  .QUASI_UNIFORM_KNOTS.);
#468 = CARTESIAN_POINT('',(2.952821117053E-02,1.659121612032E-04));
#469 = CARTESIAN_POINT('',(2.908512509808E-02,3.422649872745E-04));
#470 = CARTESIAN_POINT('',(2.819895176264E-02,6.299900927877E-04));
#471 = CARTESIAN_POINT('',(2.68696879652E-02,8.936076986777E-04));
#472 = CARTESIAN_POINT('',(2.554042031419E-02,1.016299955524E-03));
#473 = CARTESIAN_POINT('',(2.421114817852E-02,1.024855661266E-03));
#474 = CARTESIAN_POINT('',(2.288187193729E-02,9.460246027159E-04));
#475 = CARTESIAN_POINT('',(2.155259300522E-02,8.064953922285E-04));
#476 = CARTESIAN_POINT('',(2.022331364441E-02,6.33143326963E-04));
#477 = CARTESIAN_POINT('',(1.889403638241E-02,4.523410562058E-04));
#478 = CARTESIAN_POINT('',(1.756476372324E-02,2.926721496604E-04));
#479 = CARTESIAN_POINT('',(1.623549689905E-02,1.748909341596E-04));
#480 = CARTESIAN_POINT('',(1.490623930981E-02,1.493874803051E-04));
#481 = CARTESIAN_POINT('',(1.357698434302E-02,1.528282307901E-04));
#482 = CARTESIAN_POINT('',(1.224772712574E-02,1.404926441443E-04));
#483 = CARTESIAN_POINT('',(1.091846803995E-02,1.260306931142E-04));
#484 = CARTESIAN_POINT('',(9.589206065061E-03,1.074718212453E-04));
#485 = CARTESIAN_POINT('',(8.259940561757E-03,8.705060045668E-05));
#486 = CARTESIAN_POINT('',(6.930670793945E-03,6.589413026185E-05));
#487 = CARTESIAN_POINT('',(5.601396056847E-03,4.544550277639E-05));
#488 = CARTESIAN_POINT('',(4.272115642631E-03,2.708107373423E-05));
#489 = CARTESIAN_POINT('',(2.942828849728E-03,1.221633452164E-05));
#490 = CARTESIAN_POINT('',(1.613534979826E-03,2.263547374976E-06));
#491 = CARTESIAN_POINT('',(7.273338868737E-04,-1.162945960361E-07));
#492 = CARTESIAN_POINT('',(2.842319297804E-04,0.));
#493 = ( GEOMETRIC_REPRESENTATION_CONTEXT(2) 
PARAMETRIC_REPRESENTATION_CONTEXT() REPRESENTATION_CONTEXT('2D SPACE',''
  ) );
#494 = FACE_BOUND('',#495,.T.);
#495 = EDGE_LOOP('',(#496,#521,#544,#567));
#496 = ORIENTED_EDGE('',*,*,#497,.T.);
#497 = EDGE_CURVE('',#498,#500,#502,.T.);
#498 = VERTEX_POINT('',#499);
#499 = CARTESIAN_POINT('',(9.,23.499006327744,-12.41486306156));
#500 = VERTEX_POINT('',#501);
#501 = CARTESIAN_POINT('',(-9.,23.499006327744,-12.41486306156));
#502 = SURFACE_CURVE('',#503,(#507,#514),.PCURVE_S1.);
#503 = LINE('',#504,#505);
#504 = CARTESIAN_POINT('',(0.,23.499006327744,-12.41486306156));
#505 = VECTOR('',#506,1.);
#506 = DIRECTION('',(-1.,0.,0.));
#507 = PCURVE('',#318,#508);
#508 = DEFINITIONAL_REPRESENTATION('',(#509),#513);
#509 = LINE('',#510,#511);
#510 = CARTESIAN_POINT('',(28.61553420974,12.657014113473));
#511 = VECTOR('',#512,1.);
#512 = DIRECTION('',(0.,-1.));
#513 = ( GEOMETRIC_REPRESENTATION_CONTEXT(2) 
PARAMETRIC_REPRESENTATION_CONTEXT() REPRESENTATION_CONTEXT('2D SPACE',''
  ) );
#514 = PCURVE('',#238,#515);
#515 = DEFINITIONAL_REPRESENTATION('',(#516),#520);
#516 = LINE('',#517,#518);
#517 = CARTESIAN_POINT('',(0.,0.));
#518 = VECTOR('',#519,1.);
#519 = DIRECTION('',(0.,-1.));
#520 = ( GEOMETRIC_REPRESENTATION_CONTEXT(2) 
PARAMETRIC_REPRESENTATION_CONTEXT() REPRESENTATION_CONTEXT('2D SPACE',''
  ) );
#521 = ORIENTED_EDGE('',*,*,#522,.T.);
#522 = EDGE_CURVE('',#500,#523,#525,.T.);
#523 = VERTEX_POINT('',#524);
#524 = CARTESIAN_POINT('',(-9.,22.660335759799,-12.95950209658));
#525 = SURFACE_CURVE('',#526,(#530,#537),.PCURVE_S1.);
#526 = LINE('',#527,#528);
#527 = CARTESIAN_POINT('',(-9.,23.499006327744,-12.41486306156));
#528 = VECTOR('',#529,1.);
#529 = DIRECTION('',(0.,-0.838670567945,-0.544639035015));
#530 = PCURVE('',#318,#531);
#531 = DEFINITIONAL_REPRESENTATION('',(#532),#536);
#532 = LINE('',#533,#534);
#533 = CARTESIAN_POINT('',(28.61553420974,3.657014113473));
#534 = VECTOR('',#535,1.);
#535 = DIRECTION('',(-1.,0.));
#536 = ( GEOMETRIC_REPRESENTATION_CONTEXT(2) 
PARAMETRIC_REPRESENTATION_CONTEXT() REPRESENTATION_CONTEXT('2D SPACE',''
  ) );
#537 = PCURVE('',#210,#538);
#538 = DEFINITIONAL_REPRESENTATION('',(#539),#543);
#539 = LINE('',#540,#541);
#540 = CARTESIAN_POINT('',(0.,0.));
#541 = VECTOR('',#542,1.);
#542 = DIRECTION('',(-0.544639035015,-0.838670567945));
#543 = ( GEOMETRIC_REPRESENTATION_CONTEXT(2) 
PARAMETRIC_REPRESENTATION_CONTEXT() REPRESENTATION_CONTEXT('2D SPACE',''
  ) );
#544 = ORIENTED_EDGE('',*,*,#545,.T.);
#545 = EDGE_CURVE('',#523,#546,#548,.T.);
#546 = VERTEX_POINT('',#547);
#547 = CARTESIAN_POINT('',(9.,22.660335759798,-12.95950209658));
#548 = SURFACE_CURVE('',#549,(#553,#560),.PCURVE_S1.);
#549 = LINE('',#550,#551);
#550 = CARTESIAN_POINT('',(9.,22.660335759798,-12.95950209658));
#551 = VECTOR('',#552,1.);
#552 = DIRECTION('',(1.,-0.,-0.));
#553 = PCURVE('',#318,#554);
#554 = DEFINITIONAL_REPRESENTATION('',(#555),#559);
#555 = LINE('',#556,#557);
#556 = CARTESIAN_POINT('',(27.61553420974,21.657014113473));
#557 = VECTOR('',#558,1.);
#558 = DIRECTION('',(0.,1.));
#559 = ( GEOMETRIC_REPRESENTATION_CONTEXT(2) 
PARAMETRIC_REPRESENTATION_CONTEXT() REPRESENTATION_CONTEXT('2D SPACE',''
  ) );
#560 = PCURVE('',#292,#561);
#561 = DEFINITIONAL_REPRESENTATION('',(#562),#566);
#562 = LINE('',#563,#564);
#563 = CARTESIAN_POINT('',(0.,0.));
#564 = VECTOR('',#565,1.);
#565 = DIRECTION('',(0.,1.));
#566 = ( GEOMETRIC_REPRESENTATION_CONTEXT(2) 
PARAMETRIC_REPRESENTATION_CONTEXT() REPRESENTATION_CONTEXT('2D SPACE',''
  ) );
#567 = ORIENTED_EDGE('',*,*,#568,.T.);
#568 = EDGE_CURVE('',#546,#498,#569,.T.);
#569 = SURFACE_CURVE('',#570,(#574,#581),.PCURVE_S1.);
#570 = LINE('',#571,#572);
#571 = CARTESIAN_POINT('',(9.,23.499006327744,-12.41486306156));
#572 = VECTOR('',#573,1.);
#573 = DIRECTION('',(-0.,0.838670567945,0.544639035015));
#574 = PCURVE('',#318,#575);
#575 = DEFINITIONAL_REPRESENTATION('',(#576),#580);
#576 = LINE('',#577,#578);
#577 = CARTESIAN_POINT('',(28.61553420974,21.657014113473));
#578 = VECTOR('',#579,1.);
#579 = DIRECTION('',(1.,0.));
#580 = ( GEOMETRIC_REPRESENTATION_CONTEXT(2) 
PARAMETRIC_REPRESENTATION_CONTEXT() REPRESENTATION_CONTEXT('2D SPACE',''
  ) );
#581 = PCURVE('',#266,#582);
#582 = DEFINITIONAL_REPRESENTATION('',(#583),#587);
#583 = LINE('',#584,#585);
#584 = CARTESIAN_POINT('',(0.,0.));
#585 = VECTOR('',#586,1.);
#586 = DIRECTION('',(-0.544639035015,0.838670567945));
#587 = ( GEOMETRIC_REPRESENTATION_CONTEXT(2) 
PARAMETRIC_REPRESENTATION_CONTEXT() REPRESENTATION_CONTEXT('2D SPACE',''
  ) );
#588 = ADVANCED_FACE('',(#589),#74,.T.);
#589 = FACE_BOUND('',#590,.T.);
#590 = EDGE_LOOP('',(#591,#638,#706,#774,#794));
#591 = ORIENTED_EDGE('',*,*,#592,.F.);
#592 = EDGE_CURVE('',#593,#24,#595,.T.);
#593 = VERTEX_POINT('',#594);
#594 = CARTESIAN_POINT('',(-11.49308960081,24.297511219651,
    -11.53296254045));
#595 = SURFACE_CURVE('',#596,(#601,#630),.PCURVE_S1.);
#596 = B_SPLINE_CURVE_WITH_KNOTS('',3,(#597,#598,#599,#600),
  .UNSPECIFIED.,.F.,.F.,(4,4),(3.047644774226E-04,2.000261049804E-03),
  .PIECEWISE_BEZIER_KNOTS.);
#597 = CARTESIAN_POINT('',(-11.49308960081,24.297511219651,
    -11.53296254045));
#598 = CARTESIAN_POINT('',(-11.48418170823,23.989738250552,
    -11.05903372853));
#599 = CARTESIAN_POINT('',(-11.47500277675,23.681967572692,
    -10.5851084448));
#600 = CARTESIAN_POINT('',(-11.46555152796,23.374199410851,
    -10.11118703541));
#601 = PCURVE('',#74,#602);
#602 = DEFINITIONAL_REPRESENTATION('',(#603),#629);
#603 = B_SPLINE_CURVE_WITH_KNOTS('',3,(#604,#605,#606,#607,#608,#609,
    #610,#611,#612,#613,#614,#615,#616,#617,#618,#619,#620,#621,#622,
    #623,#624,#625,#626,#627,#628),.UNSPECIFIED.,.F.,.F.,(4,1,1,1,1,1,1,
    1,1,1,1,1,1,1,1,1,1,1,1,1,1,1,4),(3.047644774226E-04,
    3.8183250344E-04,4.589005294573E-04,5.359685554747E-04,
    6.13036581492E-04,6.901046075094E-04,7.671726335267E-04,
    8.442406595441E-04,9.213086855614E-04,9.983767115788E-04,
    1.075444737596E-03,1.152512763614E-03,1.229580789631E-03,
    1.306648815648E-03,1.383716841666E-03,1.460784867683E-03,
    1.5378528937E-03,1.614920919718E-03,1.691988945735E-03,
    1.769056971752E-03,1.84612499777E-03,1.923193023787E-03,
    2.000261049804E-03),.QUASI_UNIFORM_KNOTS.);
#604 = CARTESIAN_POINT('',(9.302079894164E-03,0.913738198662));
#605 = CARTESIAN_POINT('',(9.85938872372E-03,0.914955373892));
#606 = CARTESIAN_POINT('',(1.097404627012E-02,0.917389723529));
#607 = CARTESIAN_POINT('',(1.264615227248E-02,0.921041245501));
#608 = CARTESIAN_POINT('',(1.43183779785E-02,0.92469276498));
#609 = CARTESIAN_POINT('',(1.599072340911E-02,0.928344281955));
#610 = CARTESIAN_POINT('',(1.766318858521E-02,0.931995796415));
#611 = CARTESIAN_POINT('',(1.933577352774E-02,0.935647308348));
#612 = CARTESIAN_POINT('',(2.100847825763E-02,0.939298817744));
#613 = CARTESIAN_POINT('',(2.268130279582E-02,0.942950324591));
#614 = CARTESIAN_POINT('',(2.435424716327E-02,0.946601828879));
#615 = CARTESIAN_POINT('',(2.602731138093E-02,0.950253330596));
#616 = CARTESIAN_POINT('',(2.770049546976E-02,0.953904829732));
#617 = CARTESIAN_POINT('',(2.937379945075E-02,0.957556326275));
#618 = CARTESIAN_POINT('',(3.104722334487E-02,0.961207820215));
#619 = CARTESIAN_POINT('',(3.272076717312E-02,0.96485931154));
#620 = CARTESIAN_POINT('',(3.439443095648E-02,0.96851080024));
#621 = CARTESIAN_POINT('',(3.606821471596E-02,0.972162286303));
#622 = CARTESIAN_POINT('',(3.774211847258E-02,0.975813769719));
#623 = CARTESIAN_POINT('',(3.941614224736E-02,0.979465250476));
#624 = CARTESIAN_POINT('',(4.109028606131E-02,0.983116728563));
#625 = CARTESIAN_POINT('',(4.276454993548E-02,0.98676820397));
#626 = CARTESIAN_POINT('',(4.443893389091E-02,0.990419676685));
#627 = CARTESIAN_POINT('',(4.55552699294E-02,0.992853990027));
#628 = CARTESIAN_POINT('',(4.61134579692E-02,0.994071146245));
#629 = ( GEOMETRIC_REPRESENTATION_CONTEXT(2) 
PARAMETRIC_REPRESENTATION_CONTEXT() REPRESENTATION_CONTEXT('2D SPACE',''
  ) );
#630 = PCURVE('',#44,#631);
#631 = DEFINITIONAL_REPRESENTATION('',(#632),#637);
#632 = B_SPLINE_CURVE_WITH_KNOTS('',3,(#633,#634,#635,#636),
  .UNSPECIFIED.,.F.,.F.,(4,4),(3.047644774226E-04,2.000261049804E-03),
  .PIECEWISE_BEZIER_KNOTS.);
#633 = CARTESIAN_POINT('',(-0.304727077128,2.407546059692));
#634 = CARTESIAN_POINT('',(-0.869822395885,2.416453952272));
#635 = CARTESIAN_POINT('',(-1.434913507746,2.425632883749));
#636 = CARTESIAN_POINT('',(-2.,2.435084132541));
#637 = ( GEOMETRIC_REPRESENTATION_CONTEXT(2) 
PARAMETRIC_REPRESENTATION_CONTEXT() REPRESENTATION_CONTEXT('2D SPACE',''
  ) );
#638 = ORIENTED_EDGE('',*,*,#639,.T.);
#639 = EDGE_CURVE('',#593,#640,#642,.T.);
#640 = VERTEX_POINT('',#641);
#641 = CARTESIAN_POINT('',(-10.16557284061,-0.45841331102,
    -27.59985823739));
#642 = SURFACE_CURVE('',#643,(#648,#677),.PCURVE_S1.);
#643 = B_SPLINE_CURVE_WITH_KNOTS('',3,(#644,#645,#646,#647),
  .UNSPECIFIED.,.F.,.F.,(4,4),(2.769971986379E-04,2.982129934119E-02),
  .PIECEWISE_BEZIER_KNOTS.);
#644 = CARTESIAN_POINT('',(-11.49308960081,24.297511219651,
    -11.53296254045));
#645 = CARTESIAN_POINT('',(-11.25406131962,16.038942418712,
    -16.89307373997));
#646 = CARTESIAN_POINT('',(-10.82030781277,7.784549883016,
    -22.25028467978));
#647 = CARTESIAN_POINT('',(-10.16557284061,-0.45841331102,
    -27.59985823739));
#648 = PCURVE('',#74,#649);
#649 = DEFINITIONAL_REPRESENTATION('',(#650),#676);
#650 = B_SPLINE_CURVE_WITH_KNOTS('',3,(#651,#652,#653,#654,#655,#656,
    #657,#658,#659,#660,#661,#662,#663,#664,#665,#666,#667,#668,#669,
    #670,#671,#672,#673,#674,#675),.UNSPECIFIED.,.F.,.F.,(4,1,1,1,1,1,1,
    1,1,1,1,1,1,1,1,1,1,1,1,1,1,1,4),(2.769971986379E-04,
    1.619920023299E-03,2.96284284796E-03,4.305765672622E-03,
    5.648688497283E-03,6.991611321944E-03,8.334534146606E-03,
    9.677456971267E-03,1.102037979593E-02,1.236330262059E-02,
    1.370622544525E-02,1.504914826991E-02,1.639207109457E-02,
    1.773499391923E-02,1.90779167439E-02,2.042083956856E-02,
    2.176376239322E-02,2.310668521788E-02,2.444960804254E-02,
    2.57925308672E-02,2.713545369186E-02,2.847837651653E-02,
    2.982129934119E-02),.QUASI_UNIFORM_KNOTS.);
#651 = CARTESIAN_POINT('',(9.302079894164E-03,0.913738198662));
#652 = CARTESIAN_POINT('',(2.425652317413E-02,0.899972007583));
#653 = CARTESIAN_POINT('',(5.419371084541E-02,0.872440302574));
#654 = CARTESIAN_POINT('',(9.918473295813E-02,0.831144927327));
#655 = CARTESIAN_POINT('',(0.144261331459,0.789851885169));
#656 = CARTESIAN_POINT('',(0.189423847343,0.748561326918));
#657 = CARTESIAN_POINT('',(0.234672625036,0.707273403397));
#658 = CARTESIAN_POINT('',(0.280008012881,0.665988265425));
#659 = CARTESIAN_POINT('',(0.325430363013,0.624706063823));
#660 = CARTESIAN_POINT('',(0.370940031404,0.583426949412));
#661 = CARTESIAN_POINT('',(0.416537377854,0.542151073012));
#662 = CARTESIAN_POINT('',(0.462222765999,0.500878585444));
#663 = CARTESIAN_POINT('',(0.507996563308,0.459609637528));
#664 = CARTESIAN_POINT('',(0.553859141087,0.418344380084));
#665 = CARTESIAN_POINT('',(0.599810874477,0.377082963934));
#666 = CARTESIAN_POINT('',(0.645852142447,0.335825539898));
#667 = CARTESIAN_POINT('',(0.691983327798,0.294572258796));
#668 = CARTESIAN_POINT('',(0.738204817147,0.253323271449));
#669 = CARTESIAN_POINT('',(0.784517000926,0.212078728678));
#670 = CARTESIAN_POINT('',(0.830920273378,0.170838781303));
#671 = CARTESIAN_POINT('',(0.87741503251,0.129603580144));
#672 = CARTESIAN_POINT('',(0.924001680212,8.837327602196E-02));
#673 = CARTESIAN_POINT('',(0.970680621763,4.71480197578E-02));
#674 = CARTESIAN_POINT('',(1.001861718977,1.966798136715E-02));
#675 = CARTESIAN_POINT('',(1.017467786454,5.928853754945E-03));
#676 = ( GEOMETRIC_REPRESENTATION_CONTEXT(2) 
PARAMETRIC_REPRESENTATION_CONTEXT() REPRESENTATION_CONTEXT('2D SPACE',''
  ) );
#677 = PCURVE('',#447,#678);
#678 = DEFINITIONAL_REPRESENTATION('',(#679),#705);
#679 = B_SPLINE_CURVE_WITH_KNOTS('',3,(#680,#681,#682,#683,#684,#685,
    #686,#687,#688,#689,#690,#691,#692,#693,#694,#695,#696,#697,#698,
    #699,#700,#701,#702,#703,#704),.UNSPECIFIED.,.F.,.F.,(4,1,1,1,1,1,1,
    1,1,1,1,1,1,1,1,1,1,1,1,1,1,1,4),(2.769971986379E-04,
    1.619920023299E-03,2.96284284796E-03,4.305765672622E-03,
    5.648688497283E-03,6.991611321944E-03,8.334534146606E-03,
    9.677456971267E-03,1.102037979593E-02,1.236330262059E-02,
    1.370622544525E-02,1.504914826991E-02,1.639207109457E-02,
    1.773499391923E-02,1.90779167439E-02,2.042083956856E-02,
    2.176376239322E-02,2.310668521788E-02,2.444960804254E-02,
    2.57925308672E-02,2.713545369186E-02,2.847837651653E-02,
    2.982129934119E-02),.QUASI_UNIFORM_KNOTS.);
#680 = CARTESIAN_POINT('',(2.769507833418E-04,1.));
#681 = CARTESIAN_POINT('',(7.244236796434E-04,1.000000002411));
#682 = CARTESIAN_POINT('',(1.619365642387E-03,0.99999996153));
#683 = CARTESIAN_POINT('',(2.961767756685E-03,0.999999769666));
#684 = CARTESIAN_POINT('',(4.304159699223E-03,0.999999452433));
#685 = CARTESIAN_POINT('',(5.646542134014E-03,0.999999019881));
#686 = CARTESIAN_POINT('',(6.988915728385E-03,0.99999850122));
#687 = CARTESIAN_POINT('',(8.331281156218E-03,0.99999788338));
#688 = CARTESIAN_POINT('',(9.673639087917E-03,0.999997342683));
#689 = CARTESIAN_POINT('',(1.101599022762E-02,0.999996379915));
#690 = CARTESIAN_POINT('',(1.235833517467E-02,0.999997048709));
#691 = CARTESIAN_POINT('',(1.370067494082E-02,0.999991907236));
#692 = CARTESIAN_POINT('',(1.504300902016E-02,1.000008983224));
#693 = CARTESIAN_POINT('',(1.638534259252E-02,0.999943962116));
#694 = CARTESIAN_POINT('',(1.772767993093E-02,0.999737035684));
#695 = CARTESIAN_POINT('',(1.90700197775E-02,0.999461025444));
#696 = CARTESIAN_POINT('',(2.041236136376E-02,0.999153232537));
#697 = CARTESIAN_POINT('',(2.175470248154E-02,0.998860417632));
#698 = CARTESIAN_POINT('',(2.309704064021E-02,0.998626712532));
#699 = CARTESIAN_POINT('',(2.443937385405E-02,0.998496878471));
#700 = CARTESIAN_POINT('',(2.57817015427E-02,0.998515505736));
#701 = CARTESIAN_POINT('',(2.712402477854E-02,0.998727391663));
#702 = CARTESIAN_POINT('',(2.846634619127E-02,0.999177558846));
#703 = CARTESIAN_POINT('',(2.936122658595E-02,0.999667058113));
#704 = CARTESIAN_POINT('',(2.980866689105E-02,0.999966751067));
#705 = ( GEOMETRIC_REPRESENTATION_CONTEXT(2) 
PARAMETRIC_REPRESENTATION_CONTEXT() REPRESENTATION_CONTEXT('2D SPACE',''
  ) );
#706 = ORIENTED_EDGE('',*,*,#707,.T.);
#707 = EDGE_CURVE('',#640,#708,#710,.T.);
#708 = VERTEX_POINT('',#709);
#709 = CARTESIAN_POINT('',(-10.16226774207,-0.5,-27.44746873419));
#710 = SURFACE_CURVE('',#711,(#716,#745),.PCURVE_S1.);
#711 = B_SPLINE_CURVE_WITH_KNOTS('',3,(#712,#713,#714,#715),
  .UNSPECIFIED.,.F.,.F.,(4,4),(0.,1.602729124257E-04),
  .PIECEWISE_BEZIER_KNOTS.);
#712 = CARTESIAN_POINT('',(-10.16557284061,-0.45841331102,
    -27.59985823739));
#713 = CARTESIAN_POINT('',(-10.16340860947,-0.485660484837,
    -27.55365405499));
#714 = CARTESIAN_POINT('',(-10.16226774207,-0.5,-27.50115302841));
#715 = CARTESIAN_POINT('',(-10.16226774207,-0.5,-27.44746873419));
#716 = PCURVE('',#74,#717);
#717 = DEFINITIONAL_REPRESENTATION('',(#718),#744);
#718 = B_SPLINE_CURVE_WITH_KNOTS('',3,(#719,#720,#721,#722,#723,#724,
    #725,#726,#727,#728,#729,#730,#731,#732,#733,#734,#735,#736,#737,
    #738,#739,#740,#741,#742,#743),.UNSPECIFIED.,.F.,.F.,(4,1,1,1,1,1,1,
    1,1,1,1,1,1,1,1,1,1,1,1,1,1,1,4),(0.,7.285132382988E-06,
    1.457026476598E-05,2.185539714896E-05,2.914052953195E-05,
    3.642566191494E-05,4.371079429793E-05,5.099592668092E-05,
    5.828105906391E-05,6.556619144689E-05,7.285132382988E-05,
    8.013645621287E-05,8.742158859586E-05,9.470672097885E-05,
    1.019918533618E-04,1.092769857448E-04,1.165621181278E-04,
    1.238472505108E-04,1.311323828938E-04,1.384175152768E-04,
    1.457026476598E-04,1.529877800428E-04,1.602729124257E-04),
  .QUASI_UNIFORM_KNOTS.);
#719 = CARTESIAN_POINT('',(1.017467786454,5.928853754945E-03));
#720 = CARTESIAN_POINT('',(1.017519372423,6.047518383325E-03));
#721 = CARTESIAN_POINT('',(1.017620323118,6.286317819222E-03));
#722 = CARTESIAN_POINT('',(1.017765051698,6.64876470439E-03));
#723 = CARTESIAN_POINT('',(1.017903049082,7.015296514792E-03));
#724 = CARTESIAN_POINT('',(1.018034281541,7.385750444338E-03));
#725 = CARTESIAN_POINT('',(1.018158715353,7.759963686939E-03));
#726 = CARTESIAN_POINT('',(1.018276316799,8.137773436506E-03));
#727 = CARTESIAN_POINT('',(1.018387052166,8.519016886951E-03));
#728 = CARTESIAN_POINT('',(1.018490887747,8.903531232182E-03));
#729 = CARTESIAN_POINT('',(1.018587789838,9.291153666113E-03));
#730 = CARTESIAN_POINT('',(1.018677724743,9.681721382652E-03));
#731 = CARTESIAN_POINT('',(1.018760658769,1.007507157571E-02));
#732 = CARTESIAN_POINT('',(1.01883655823,1.04710414392E-02));
#733 = CARTESIAN_POINT('',(1.018905389445,1.086946816704E-02));
#734 = CARTESIAN_POINT('',(1.018967118741,1.127018895312E-02));
#735 = CARTESIAN_POINT('',(1.019021712447,1.167304099137E-02));
#736 = CARTESIAN_POINT('',(1.0190691369,1.207786147569E-02));
#737 = CARTESIAN_POINT('',(1.019109358444,1.24844876E-02));
#738 = CARTESIAN_POINT('',(1.019142343428,1.289275655821E-02));
#739 = CARTESIAN_POINT('',(1.019168058206,1.330250554422E-02));
#740 = CARTESIAN_POINT('',(1.019186469141,1.371357175195E-02));
#741 = CARTESIAN_POINT('',(1.019197542601,1.412579237531E-02));
#742 = CARTESIAN_POINT('',(1.019200010842,1.440126719724E-02));
#743 = CARTESIAN_POINT('',(1.019200010841,1.453914274211E-02));
#744 = ( GEOMETRIC_REPRESENTATION_CONTEXT(2) 
PARAMETRIC_REPRESENTATION_CONTEXT() REPRESENTATION_CONTEXT('2D SPACE',''
  ) );
#745 = PCURVE('',#419,#746);
#746 = DEFINITIONAL_REPRESENTATION('',(#747),#773);
#747 = B_SPLINE_CURVE_WITH_KNOTS('',3,(#748,#749,#750,#751,#752,#753,
    #754,#755,#756,#757,#758,#759,#760,#761,#762,#763,#764,#765,#766,
    #767,#768,#769,#770,#771,#772),.UNSPECIFIED.,.F.,.F.,(4,1,1,1,1,1,1,
    1,1,1,1,1,1,1,1,1,1,1,1,1,1,1,4),(0.,7.285132382988E-06,
    1.457026476598E-05,2.185539714896E-05,2.914052953195E-05,
    3.642566191494E-05,4.371079429793E-05,5.099592668092E-05,
    5.828105906391E-05,6.556619144689E-05,7.285132382988E-05,
    8.013645621287E-05,8.742158859586E-05,9.470672097885E-05,
    1.019918533618E-04,1.092769857448E-04,1.165621181278E-04,
    1.238472505108E-04,1.311323828938E-04,1.384175152768E-04,
    1.457026476598E-04,1.529877800428E-04,1.602729124257E-04),
  .QUASI_UNIFORM_KNOTS.);
#748 = CARTESIAN_POINT('',(4.179568322285,-2.491441272861));
#749 = CARTESIAN_POINT('',(4.187695568071,-2.491539647003));
#750 = CARTESIAN_POINT('',(4.203934481931,-2.491732166513));
#751 = CARTESIAN_POINT('',(4.228250642209,-2.492008193237));
#752 = CARTESIAN_POINT('',(4.25252914257,-2.492271401212));
#753 = CARTESIAN_POINT('',(4.276774435708,-2.492521724224));
#754 = CARTESIAN_POINT('',(4.300990918754,-2.492759096062));
#755 = CARTESIAN_POINT('',(4.325182931144,-2.492983450514));
#756 = CARTESIAN_POINT('',(4.349354764902,-2.493194721369));
#757 = CARTESIAN_POINT('',(4.373510672029,-2.493392842414));
#758 = CARTESIAN_POINT('',(4.397654873027,-2.49357774744));
#759 = CARTESIAN_POINT('',(4.421791565391,-2.493749370232));
#760 = CARTESIAN_POINT('',(4.445924932324,-2.493907644581));
#761 = CARTESIAN_POINT('',(4.470059151526,-2.494052504273));
#762 = CARTESIAN_POINT('',(4.494198404034,-2.494183883099));
#763 = CARTESIAN_POINT('',(4.518346883036,-2.494301714845));
#764 = CARTESIAN_POINT('',(4.542508802624,-2.4944059333));
#765 = CARTESIAN_POINT('',(4.566688406434,-2.494496472252));
#766 = CARTESIAN_POINT('',(4.590889976035,-2.494573265491));
#767 = CARTESIAN_POINT('',(4.615117839331,-2.494636246804));
#768 = CARTESIAN_POINT('',(4.639376377736,-2.494685349979));
#769 = CARTESIAN_POINT('',(4.663670036451,-2.494720508804));
#770 = CARTESIAN_POINT('',(4.68800332143,-2.494741657069));
#771 = CARTESIAN_POINT('',(4.7042550031,-2.494746371397));
#772 = CARTESIAN_POINT('',(4.712388980385,-2.494746371397));
#773 = ( GEOMETRIC_REPRESENTATION_CONTEXT(2) 
PARAMETRIC_REPRESENTATION_CONTEXT() REPRESENTATION_CONTEXT('2D SPACE',''
  ) );
#774 = ORIENTED_EDGE('',*,*,#775,.T.);
#775 = EDGE_CURVE('',#708,#57,#776,.T.);
#776 = SURFACE_CURVE('',#777,(#781,#787),.PCURVE_S1.);
#777 = LINE('',#778,#779);
#778 = CARTESIAN_POINT('',(-10.16226774207,-0.5,-40.));
#779 = VECTOR('',#780,1.);
#780 = DIRECTION('',(0.,0.,1.));
#781 = PCURVE('',#74,#782);
#782 = DEFINITIONAL_REPRESENTATION('',(#783),#786);
#783 = B_SPLINE_CURVE_WITH_KNOTS('',1,(#784,#785),.UNSPECIFIED.,.F.,.F.,
  (2,2),(12.55253126581,14.384726585672),.PIECEWISE_BEZIER_KNOTS.);
#784 = CARTESIAN_POINT('',(1.019200010841,1.453914274211E-02));
#785 = CARTESIAN_POINT('',(1.019200010841,0.118061569503));
#786 = ( GEOMETRIC_REPRESENTATION_CONTEXT(2) 
PARAMETRIC_REPRESENTATION_CONTEXT() REPRESENTATION_CONTEXT('2D SPACE',''
  ) );
#787 = PCURVE('',#126,#788);
#788 = DEFINITIONAL_REPRESENTATION('',(#789),#793);
#789 = LINE('',#790,#791);
#790 = CARTESIAN_POINT('',(31.7,29.837732257924));
#791 = VECTOR('',#792,1.);
#792 = DIRECTION('',(-1.,0.));
#793 = ( GEOMETRIC_REPRESENTATION_CONTEXT(2) 
PARAMETRIC_REPRESENTATION_CONTEXT() REPRESENTATION_CONTEXT('2D SPACE',''
  ) );
#794 = ORIENTED_EDGE('',*,*,#56,.F.);
#795 = ADVANCED_FACE('',(#796),#154,.T.);
#796 = FACE_BOUND('',#797,.T.);
#797 = EDGE_LOOP('',(#798,#845,#846,#868,#936));
#798 = ORIENTED_EDGE('',*,*,#799,.F.);
#799 = EDGE_CURVE('',#22,#800,#802,.T.);
#800 = VERTEX_POINT('',#801);
#801 = CARTESIAN_POINT('',(11.493089600815,24.297511219651,
    -11.53296254045));
#802 = SURFACE_CURVE('',#803,(#808,#837),.PCURVE_S1.);
#803 = B_SPLINE_CURVE_WITH_KNOTS('',3,(#804,#805,#806,#807),
  .UNSPECIFIED.,.F.,.F.,(4,4),(2.231441110667E-04,1.918640683448E-03),
  .PIECEWISE_BEZIER_KNOTS.);
#804 = CARTESIAN_POINT('',(11.465551527965,23.374199410851,
    -10.11118703541));
#805 = CARTESIAN_POINT('',(11.475002776757,23.681967572692,
    -10.5851084448));
#806 = CARTESIAN_POINT('',(11.484181708234,23.989738250552,
    -11.05903372853));
#807 = CARTESIAN_POINT('',(11.493089600815,24.297511219651,
    -11.53296254045));
#808 = PCURVE('',#154,#809);
#809 = DEFINITIONAL_REPRESENTATION('',(#810),#836);
#810 = B_SPLINE_CURVE_WITH_KNOTS('',3,(#811,#812,#813,#814,#815,#816,
    #817,#818,#819,#820,#821,#822,#823,#824,#825,#826,#827,#828,#829,
    #830,#831,#832,#833,#834,#835),.UNSPECIFIED.,.F.,.F.,(4,1,1,1,1,1,1,
    1,1,1,1,1,1,1,1,1,1,1,1,1,1,1,4),(2.231441110667E-04,
    3.00212137084E-04,3.772801631014E-04,4.543481891187E-04,
    5.314162151361E-04,6.084842411534E-04,6.855522671708E-04,
    7.626202931882E-04,8.396883192055E-04,9.167563452229E-04,
    9.938243712402E-04,1.070892397258E-03,1.147960423275E-03,
    1.225028449292E-03,1.30209647531E-03,1.379164501327E-03,
    1.456232527344E-03,1.533300553362E-03,1.610368579379E-03,
    1.687436605396E-03,1.764504631414E-03,1.841572657431E-03,
    1.918640683448E-03),.QUASI_UNIFORM_KNOTS.);
#811 = CARTESIAN_POINT('',(0.973134714886,0.994071146245));
#812 = CARTESIAN_POINT('',(0.973692902926,0.992853990027));
#813 = CARTESIAN_POINT('',(0.974809238964,0.990419676685));
#814 = CARTESIAN_POINT('',(0.97648362292,0.98676820397));
#815 = CARTESIAN_POINT('',(0.978157886794,0.983116728563));
#816 = CARTESIAN_POINT('',(0.979832030608,0.979465250476));
#817 = CARTESIAN_POINT('',(0.981506054383,0.975813769719));
#818 = CARTESIAN_POINT('',(0.983179958139,0.972162286303));
#819 = CARTESIAN_POINT('',(0.984853741899,0.96851080024));
#820 = CARTESIAN_POINT('',(0.986527405682,0.96485931154));
#821 = CARTESIAN_POINT('',(0.988200949511,0.961207820215));
#822 = CARTESIAN_POINT('',(0.989874373405,0.957556326275));
#823 = CARTESIAN_POINT('',(0.991547677386,0.953904829732));
#824 = CARTESIAN_POINT('',(0.993220861474,0.950253330596));
#825 = CARTESIAN_POINT('',(0.994893925692,0.946601828879));
#826 = CARTESIAN_POINT('',(0.99656687006,0.942950324591));
#827 = CARTESIAN_POINT('',(0.998239694598,0.939298817744));
#828 = CARTESIAN_POINT('',(0.999912399328,0.935647308348));
#829 = CARTESIAN_POINT('',(1.00158498427,0.931995796415));
#830 = CARTESIAN_POINT('',(1.003257449446,0.928344281955));
#831 = CARTESIAN_POINT('',(1.004929794877,0.92469276498));
#832 = CARTESIAN_POINT('',(1.006602020583,0.921041245501));
#833 = CARTESIAN_POINT('',(1.008274126585,0.917389723529));
#834 = CARTESIAN_POINT('',(1.009388784132,0.914955373892));
#835 = CARTESIAN_POINT('',(1.009946092961,0.913738198662));
#836 = ( GEOMETRIC_REPRESENTATION_CONTEXT(2) 
PARAMETRIC_REPRESENTATION_CONTEXT() REPRESENTATION_CONTEXT('2D SPACE',''
  ) );
#837 = PCURVE('',#44,#838);
#838 = DEFINITIONAL_REPRESENTATION('',(#839),#844);
#839 = B_SPLINE_CURVE_WITH_KNOTS('',3,(#840,#841,#842,#843),
  .UNSPECIFIED.,.F.,.F.,(4,4),(2.231441110667E-04,1.918640683448E-03),
  .PIECEWISE_BEZIER_KNOTS.);
#840 = CARTESIAN_POINT('',(-2.,25.366187188472));
#841 = CARTESIAN_POINT('',(-1.434913507746,25.375638437263));
#842 = CARTESIAN_POINT('',(-0.869822395885,25.38481736874));
#843 = CARTESIAN_POINT('',(-0.304727077128,25.393725261321));
#844 = ( GEOMETRIC_REPRESENTATION_CONTEXT(2) 
PARAMETRIC_REPRESENTATION_CONTEXT() REPRESENTATION_CONTEXT('2D SPACE',''
  ) );
#845 = ORIENTED_EDGE('',*,*,#138,.F.);
#846 = ORIENTED_EDGE('',*,*,#847,.F.);
#847 = EDGE_CURVE('',#848,#111,#850,.T.);
#848 = VERTEX_POINT('',#849);
#849 = CARTESIAN_POINT('',(10.162267742076,-0.5,-27.44746873419));
#850 = SURFACE_CURVE('',#851,(#855,#861),.PCURVE_S1.);
#851 = LINE('',#852,#853);
#852 = CARTESIAN_POINT('',(10.162267742076,-0.5,-40.));
#853 = VECTOR('',#854,1.);
#854 = DIRECTION('',(0.,0.,1.));
#855 = PCURVE('',#154,#856);
#856 = DEFINITIONAL_REPRESENTATION('',(#857),#860);
#857 = B_SPLINE_CURVE_WITH_KNOTS('',1,(#858,#859),.UNSPECIFIED.,.F.,.F.,
  (2,2),(12.55253126581,14.384726585672),.PIECEWISE_BEZIER_KNOTS.);
#858 = CARTESIAN_POINT('',(4.816201428001E-05,1.453914274211E-02));
#859 = CARTESIAN_POINT('',(4.816201427991E-05,0.118061569503));
#860 = ( GEOMETRIC_REPRESENTATION_CONTEXT(2) 
PARAMETRIC_REPRESENTATION_CONTEXT() REPRESENTATION_CONTEXT('2D SPACE',''
  ) );
#861 = PCURVE('',#126,#862);
#862 = DEFINITIONAL_REPRESENTATION('',(#863),#867);
#863 = LINE('',#864,#865);
#864 = CARTESIAN_POINT('',(31.7,50.162267742076));
#865 = VECTOR('',#866,1.);
#866 = DIRECTION('',(-1.,0.));
#867 = ( GEOMETRIC_REPRESENTATION_CONTEXT(2) 
PARAMETRIC_REPRESENTATION_CONTEXT() REPRESENTATION_CONTEXT('2D SPACE',''
  ) );
#868 = ORIENTED_EDGE('',*,*,#869,.T.);
#869 = EDGE_CURVE('',#848,#870,#872,.T.);
#870 = VERTEX_POINT('',#871);
#871 = CARTESIAN_POINT('',(10.165572840613,-0.45841331102,
    -27.59985823739));
#872 = SURFACE_CURVE('',#873,(#878,#907),.PCURVE_S1.);
#873 = B_SPLINE_CURVE_WITH_KNOTS('',3,(#874,#875,#876,#877),
  .UNSPECIFIED.,.F.,.F.,(4,4),(0.,1.602711246959E-04),
  .PIECEWISE_BEZIER_KNOTS.);
#874 = CARTESIAN_POINT('',(10.162267742076,-0.5,-27.44746873419));
#875 = CARTESIAN_POINT('',(10.162267742076,-0.5,-27.50115261578));
#876 = CARTESIAN_POINT('',(10.163408640708,-0.485660091646,
    -27.55365472174));
#877 = CARTESIAN_POINT('',(10.165572840613,-0.45841331102,
    -27.59985823739));
#878 = PCURVE('',#154,#879);
#879 = DEFINITIONAL_REPRESENTATION('',(#880),#906);
#880 = B_SPLINE_CURVE_WITH_KNOTS('',3,(#881,#882,#883,#884,#885,#886,
    #887,#888,#889,#890,#891,#892,#893,#894,#895,#896,#897,#898,#899,
    #900,#901,#902,#903,#904,#905),.UNSPECIFIED.,.F.,.F.,(4,1,1,1,1,1,1,
    1,1,1,1,1,1,1,1,1,1,1,1,1,1,1,4),(0.,7.285051122539E-06,
    1.457010224508E-05,2.185515336762E-05,2.914020449016E-05,
    3.64252556127E-05,4.371030673524E-05,5.099535785778E-05,
    5.828040898031E-05,6.556546010285E-05,7.285051122539E-05,
    8.013556234793E-05,8.742061347047E-05,9.470566459301E-05,
    1.019907157156E-04,1.092757668381E-04,1.165608179606E-04,
    1.238458690832E-04,1.311309202057E-04,1.384159713282E-04,
    1.457010224508E-04,1.529860735733E-04,1.602711246959E-04),
  .QUASI_UNIFORM_KNOTS.);
#881 = CARTESIAN_POINT('',(4.816201427992E-05,1.453914274211E-02));
#882 = CARTESIAN_POINT('',(4.816201372742E-05,1.440126825698E-02));
#883 = CARTESIAN_POINT('',(5.063032192463E-05,1.412579520618E-02));
#884 = CARTESIAN_POINT('',(6.170405851045E-05,1.371357629756E-02));
#885 = CARTESIAN_POINT('',(8.011541834696E-05,1.33025109657E-02));
#886 = CARTESIAN_POINT('',(1.058307413744E-04,1.289276211979E-02));
#887 = CARTESIAN_POINT('',(1.388163617469E-04,1.248449266901E-02));
#888 = CARTESIAN_POINT('',(1.790386070966E-04,1.207786552256E-02));
#889 = CARTESIAN_POINT('',(2.264637988561E-04,1.16730435896E-02));
#890 = CARTESIAN_POINT('',(2.810582522997E-04,1.127018977934E-02));
#891 = CARTESIAN_POINT('',(3.427882766587E-04,1.086946700094E-02));
#892 = CARTESIAN_POINT('',(4.116201752155E-04,1.047103816361E-02));
#893 = CARTESIAN_POINT('',(4.875202454049E-04,1.007506617652E-02));
#894 = CARTESIAN_POINT('',(5.704547789086E-04,9.681713948858E-03));
#895 = CARTESIAN_POINT('',(6.603900617566E-04,9.291144389811E-03));
#896 = CARTESIAN_POINT('',(7.572923744209E-04,8.903520408561E-03));
#897 = CARTESIAN_POINT('',(8.611279919151E-04,8.519004914296E-03));
#898 = CARTESIAN_POINT('',(9.71863183887E-04,8.137760816199E-03));
#899 = CARTESIAN_POINT('',(1.089464214719E-03,7.759951023457E-03));
#900 = CARTESIAN_POINT('',(1.213897343612E-03,7.385738445254E-03));
#901 = CARTESIAN_POINT('',(1.345128824721E-03,7.015285990774E-03));
#902 = CARTESIAN_POINT('',(1.48312490709E-03,6.648756569204E-03));
#903 = CARTESIAN_POINT('',(1.627851835347E-03,6.286313089727E-03));
#904 = CARTESIAN_POINT('',(1.728801176819E-03,6.047516670929E-03));
#905 = CARTESIAN_POINT('',(1.780386401538E-03,5.928853754941E-03));
#906 = ( GEOMETRIC_REPRESENTATION_CONTEXT(2) 
PARAMETRIC_REPRESENTATION_CONTEXT() REPRESENTATION_CONTEXT('2D SPACE',''
  ) );
#907 = PCURVE('',#419,#908);
#908 = DEFINITIONAL_REPRESENTATION('',(#909),#935);
#909 = B_SPLINE_CURVE_WITH_KNOTS('',3,(#910,#911,#912,#913,#914,#915,
    #916,#917,#918,#919,#920,#921,#922,#923,#924,#925,#926,#927,#928,
    #929,#930,#931,#932,#933,#934),.UNSPECIFIED.,.F.,.F.,(4,1,1,1,1,1,1,
    1,1,1,1,1,1,1,1,1,1,1,1,1,1,1,4),(0.,7.285051122539E-06,
    1.457010224508E-05,2.185515336762E-05,2.914020449016E-05,
    3.64252556127E-05,4.371030673524E-05,5.099535785778E-05,
    5.828040898031E-05,6.556546010285E-05,7.285051122539E-05,
    8.013556234793E-05,8.742061347047E-05,9.470566459301E-05,
    1.019907157156E-04,1.092757668381E-04,1.165608179606E-04,
    1.238458690832E-04,1.311309202057E-04,1.384159713282E-04,
    1.457010224508E-04,1.529860735733E-04,1.602711246959E-04),
  .QUASI_UNIFORM_KNOTS.);
#910 = CARTESIAN_POINT('',(4.712388980385,-22.81928185555));
#911 = CARTESIAN_POINT('',(4.704255065653,-22.81928185555));
#912 = CARTESIAN_POINT('',(4.68800348841,-22.81928657));
#913 = CARTESIAN_POINT('',(4.66367030325,-22.8193077188));
#914 = CARTESIAN_POINT('',(4.639376692597,-22.81934287843));
#915 = CARTESIAN_POINT('',(4.615118156079,-22.81939198264));
#916 = CARTESIAN_POINT('',(4.590890254371,-22.81945496517));
#917 = CARTESIAN_POINT('',(4.566688612233,-22.81953175975));
#918 = CARTESIAN_POINT('',(4.542508908188,-22.81962230011));
#919 = CARTESIAN_POINT('',(4.518346867313,-22.81972651999));
#920 = CARTESIAN_POINT('',(4.494198252795,-22.81984435312));
#921 = CARTESIAN_POINT('',(4.470058857507,-22.81997573325));
#922 = CARTESIAN_POINT('',(4.445924495326,-22.82012059411));
#923 = CARTESIAN_POINT('',(4.421790992348,-22.82027886942));
#924 = CARTESIAN_POINT('',(4.397654178032,-22.82045049294));
#925 = CARTESIAN_POINT('',(4.373509876323,-22.82063539838));
#926 = CARTESIAN_POINT('',(4.349353896823,-22.8208335195));
#927 = CARTESIAN_POINT('',(4.325182026043,-22.82104479002));
#928 = CARTESIAN_POINT('',(4.300990018865,-22.82126914368));
#929 = CARTESIAN_POINT('',(4.276773589984,-22.82150651422));
#930 = CARTESIAN_POINT('',(4.252528406482,-22.82175683536));
#931 = CARTESIAN_POINT('',(4.228250077491,-22.82202004086));
#932 = CARTESIAN_POINT('',(4.203934156334,-22.82229606443));
#933 = CARTESIAN_POINT('',(4.187695450761,-22.82248858136));
#934 = CARTESIAN_POINT('',(4.179568322285,-22.82258695408));
#935 = ( GEOMETRIC_REPRESENTATION_CONTEXT(2) 
PARAMETRIC_REPRESENTATION_CONTEXT() REPRESENTATION_CONTEXT('2D SPACE',''
  ) );
#936 = ORIENTED_EDGE('',*,*,#937,.T.);
#937 = EDGE_CURVE('',#870,#800,#938,.T.);
#938 = SURFACE_CURVE('',#939,(#944,#973),.PCURVE_S1.);
#939 = B_SPLINE_CURVE_WITH_KNOTS('',3,(#940,#941,#942,#943),
  .UNSPECIFIED.,.F.,.F.,(4,4),(4.962469278578E-05,2.959382669457E-02),
  .PIECEWISE_BEZIER_KNOTS.);
#940 = CARTESIAN_POINT('',(10.165572840613,-0.45841331102,
    -27.59985823739));
#941 = CARTESIAN_POINT('',(10.820308323699,7.784556315496,
    -22.25028050519));
#942 = CARTESIAN_POINT('',(11.254060523756,16.038914920815,
    -16.89309158711));
#943 = CARTESIAN_POINT('',(11.493089600815,24.297511219651,
    -11.53296254045));
#944 = PCURVE('',#154,#945);
#945 = DEFINITIONAL_REPRESENTATION('',(#946),#972);
#946 = B_SPLINE_CURVE_WITH_KNOTS('',3,(#947,#948,#949,#950,#951,#952,
    #953,#954,#955,#956,#957,#958,#959,#960,#961,#962,#963,#964,#965,
    #966,#967,#968,#969,#970,#971),.UNSPECIFIED.,.F.,.F.,(4,1,1,1,1,1,1,
    1,1,1,1,1,1,1,1,1,1,1,1,1,1,1,4),(4.962469278578E-05,
    1.392542965594E-03,2.735461238402E-03,4.07837951121E-03,
    5.421297784018E-03,6.764216056827E-03,8.107134329635E-03,
    9.450052602443E-03,1.079297087525E-02,1.213588914806E-02,
    1.347880742087E-02,1.482172569368E-02,1.616464396648E-02,
    1.750756223929E-02,1.88504805121E-02,2.019339878491E-02,
    2.153631705772E-02,2.287923533052E-02,2.422215360333E-02,
    2.556507187614E-02,2.690799014895E-02,2.825090842176E-02,
    2.959382669457E-02),.QUASI_UNIFORM_KNOTS.);
#947 = CARTESIAN_POINT('',(1.780386401538E-03,5.928853754941E-03));
#948 = CARTESIAN_POINT('',(1.738646605575E-02,1.966799208861E-02));
#949 = CARTESIAN_POINT('',(4.856758065395E-02,4.714804580592E-02));
#950 = CARTESIAN_POINT('',(9.524652984102E-02,8.837330881458E-02));
#951 = CARTESIAN_POINT('',(0.141833169214,0.129603605539));
#952 = CARTESIAN_POINT('',(0.188327906504,0.170838787261));
#953 = CARTESIAN_POINT('',(0.234731146035,0.212078705265));
#954 = CARTESIAN_POINT('',(0.281043288235,0.253323210833));
#955 = CARTESIAN_POINT('',(0.327264729745,0.294572155248));
#956 = CARTESIAN_POINT('',(0.37339586338,0.335825389793));
#957 = CARTESIAN_POINT('',(0.419437078126,0.37708276575));
#958 = CARTESIAN_POINT('',(0.465388759128,0.418344134402));
#959 = CARTESIAN_POINT('',(0.51125128769,0.459609347033));
#960 = CARTESIAN_POINT('',(0.557025041263,0.500878254925));
#961 = CARTESIAN_POINT('',(0.60271039345,0.542150709361));
#962 = CARTESIAN_POINT('',(0.648307713999,0.583426561624));
#963 = CARTESIAN_POINT('',(0.693817368806,0.624705662997));
#964 = CARTESIAN_POINT('',(0.739239719915,0.665987864762));
#965 = CARTESIAN_POINT('',(0.784575125523,0.707273018202));
#966 = CARTESIAN_POINT('',(0.829823939977,0.748560974601));
#967 = CARTESIAN_POINT('',(0.874986513809,0.78985158524));
#968 = CARTESIAN_POINT('',(0.920063193618,0.831144701404));
#969 = CARTESIAN_POINT('',(0.96505432256,0.872440174374));
#970 = CARTESIAN_POINT('',(0.994991599887,0.899971961747));
#971 = CARTESIAN_POINT('',(1.009946092961,0.913738198662));
#972 = ( GEOMETRIC_REPRESENTATION_CONTEXT(2) 
PARAMETRIC_REPRESENTATION_CONTEXT() REPRESENTATION_CONTEXT('2D SPACE',''
  ) );
#973 = PCURVE('',#355,#974);
#974 = DEFINITIONAL_REPRESENTATION('',(#975),#1001);
#975 = B_SPLINE_CURVE_WITH_KNOTS('',3,(#976,#977,#978,#979,#980,#981,
    #982,#983,#984,#985,#986,#987,#988,#989,#990,#991,#992,#993,#994,
    #995,#996,#997,#998,#999,#1000),.UNSPECIFIED.,.F.,.F.,(4,1,1,1,1,1,1
    ,1,1,1,1,1,1,1,1,1,1,1,1,1,1,1,4),(4.962469278578E-05,
    1.392542965594E-03,2.735461238402E-03,4.07837951121E-03,
    5.421297784018E-03,6.764216056827E-03,8.107134329635E-03,
    9.450052602443E-03,1.079297087525E-02,1.213588914806E-02,
    1.347880742087E-02,1.482172569368E-02,1.616464396648E-02,
    1.750756223929E-02,1.88504805121E-02,2.019339878491E-02,
    2.153631705772E-02,2.287923533052E-02,2.422215360333E-02,
    2.556507187614E-02,2.690799014895E-02,2.825090842176E-02,
    2.959382669457E-02),.QUASI_UNIFORM_KNOTS.);
#976 = CARTESIAN_POINT('',(1.28591953457E-02,0.999966751131));
#977 = CARTESIAN_POINT('',(1.330667184435E-02,0.999667058392));
#978 = CARTESIAN_POINT('',(1.420161864612E-02,0.999177560274));
#979 = CARTESIAN_POINT('',(1.554402403858E-02,0.9987273949));
#980 = CARTESIAN_POINT('',(1.688641793228E-02,0.998515508125));
#981 = CARTESIAN_POINT('',(1.822880526622E-02,0.998496877001));
#982 = CARTESIAN_POINT('',(1.957118942162E-02,0.998626704867));
#983 = CARTESIAN_POINT('',(2.091357212824E-02,0.998860402925));
#984 = CARTESIAN_POINT('',(2.225595370571E-02,0.999153211652));
#985 = CARTESIAN_POINT('',(2.359833398625E-02,0.999461000796));
#986 = CARTESIAN_POINT('',(2.494071301886E-02,0.999737010153));
#987 = CARTESIAN_POINT('',(2.6283092536E-02,0.9999439391));
#988 = CARTESIAN_POINT('',(2.762547286938E-02,1.000008960267));
#989 = CARTESIAN_POINT('',(2.896786328086E-02,0.999991891421));
#990 = CARTESIAN_POINT('',(3.031026874533E-02,0.999997049495));
#991 = CARTESIAN_POINT('',(3.165268515698E-02,0.999996397158));
#992 = CARTESIAN_POINT('',(3.299511083644E-02,0.999997372877));
#993 = CARTESIAN_POINT('',(3.433754344769E-02,0.99999792058));
#994 = CARTESIAN_POINT('',(3.567998082445E-02,0.999998538968));
#995 = CARTESIAN_POINT('',(3.702242074898E-02,0.999999052454));
#996 = CARTESIAN_POINT('',(3.836486101159E-02,0.999999475875));
#997 = CARTESIAN_POINT('',(3.970729939485E-02,0.999999782485));
#998 = CARTESIAN_POINT('',(4.104973367847E-02,0.999999965162));
#999 = CARTESIAN_POINT('',(4.194468565051E-02,1.000000002815));
#1000 = CARTESIAN_POINT('',(4.239216021155E-02,1.));
#1001 = ( GEOMETRIC_REPRESENTATION_CONTEXT(2) 
PARAMETRIC_REPRESENTATION_CONTEXT() REPRESENTATION_CONTEXT('2D SPACE',''
  ) );
#1002 = ADVANCED_FACE('',(#1003),#355,.T.);
#1003 = FACE_BOUND('',#1004,.T.);
#1004 = EDGE_LOOP('',(#1005,#1054,#1055,#1125));
#1005 = ORIENTED_EDGE('',*,*,#1006,.F.);
#1006 = EDGE_CURVE('',#800,#310,#1007,.T.);
#1007 = SURFACE_CURVE('',#1008,(#1015,#1044),.PCURVE_S1.);
#1008 = B_SPLINE_CURVE_WITH_KNOTS('',3,(#1009,#1010,#1011,#1012,#1013,
    #1014),.UNSPECIFIED.,.F.,.F.,(4,2,4),(6.490740907899E-18,
    2.367194614941E-04,4.734389229883E-04),.UNSPECIFIED.);
#1009 = CARTESIAN_POINT('',(11.493089600815,24.297511219651,
    -11.53296254045));
#1010 = CARTESIAN_POINT('',(11.494351198984,24.341100184235,
    -11.60008365982));
#1011 = CARTESIAN_POINT('',(11.462373735173,24.384005172708,
    -11.66615154835));
#1012 = CARTESIAN_POINT('',(11.351540435261,24.445344311515,
    -11.76060553911));
#1013 = CARTESIAN_POINT('',(11.273080489409,24.463477480881,
    -11.7885281713));
#1014 = CARTESIAN_POINT('',(11.193038451791,24.463477480881,
    -11.7885281713));
#1015 = PCURVE('',#355,#1016);
#1016 = DEFINITIONAL_REPRESENTATION('',(#1017),#1043);
#1017 = B_SPLINE_CURVE_WITH_KNOTS('',3,(#1018,#1019,#1020,#1021,#1022,
    #1023,#1024,#1025,#1026,#1027,#1028,#1029,#1030,#1031,#1032,#1033,
    #1034,#1035,#1036,#1037,#1038,#1039,#1040,#1041,#1042),
  .UNSPECIFIED.,.F.,.F.,(4,1,1,1,1,1,1,1,1,1,1,1,1,1,1,1,1,1,1,1,1,1,4),
  (6.490740907899E-18,2.151995104493E-05,4.303990208985E-05,
    6.455985313477E-05,8.607980417969E-05,1.075997552246E-04,
    1.291197062695E-04,1.506396573145E-04,1.721596083594E-04,
    1.936795594043E-04,2.151995104492E-04,2.367194614941E-04,
    2.582394125391E-04,2.79759363584E-04,3.012793146289E-04,
    3.227992656738E-04,3.443192167187E-04,3.658391677637E-04,
    3.873591188086E-04,4.088790698535E-04,4.303990208984E-04,
    4.519189719433E-04,4.734389229883E-04),.QUASI_UNIFORM_KNOTS.);
#1018 = CARTESIAN_POINT('',(4.239216021155E-02,1.));
#1019 = CARTESIAN_POINT('',(4.239216299387E-02,0.982986169046));
#1020 = CARTESIAN_POINT('',(4.239215523192E-02,0.949531355315));
#1021 = CARTESIAN_POINT('',(4.23921046801E-02,0.900842451234));
#1022 = CARTESIAN_POINT('',(4.239201629046E-02,0.853406493021));
#1023 = CARTESIAN_POINT('',(4.239189113347E-02,0.807036109239));
#1024 = CARTESIAN_POINT('',(4.23917302792E-02,0.761566758568));
#1025 = CARTESIAN_POINT('',(4.239153479749E-02,0.716854664822));
#1026 = CARTESIAN_POINT('',(4.239130575736E-02,0.672768402335));
#1027 = CARTESIAN_POINT('',(4.239104422951E-02,0.629183522545));
#1028 = CARTESIAN_POINT('',(4.239075127708E-02,0.585975604531));
#1029 = CARTESIAN_POINT('',(4.239042799045E-02,0.54301961568));
#1030 = CARTESIAN_POINT('',(4.239007535729E-02,0.500167627058));
#1031 = CARTESIAN_POINT('',(4.238969474799E-02,0.457307831356));
#1032 = CARTESIAN_POINT('',(4.238928880843E-02,0.414329972437));
#1033 = CARTESIAN_POINT('',(4.238885980182E-02,0.37108834049));
#1034 = CARTESIAN_POINT('',(4.238841009424E-02,0.327460705311));
#1035 = CARTESIAN_POINT('',(4.238794202456E-02,0.28332595325));
#1036 = CARTESIAN_POINT('',(4.238745793943E-02,0.238563364609));
#1037 = CARTESIAN_POINT('',(4.238696018388E-02,0.19304557559));
#1038 = CARTESIAN_POINT('',(4.238645110397E-02,0.146633111205));
#1039 = CARTESIAN_POINT('',(4.238593304607E-02,9.916587027568E-02));
#1040 = CARTESIAN_POINT('',(4.238540835707E-02,5.046096299643E-02));
#1041 = CARTESIAN_POINT('',(4.238505570872E-02,1.700859404163E-02));
#1042 = CARTESIAN_POINT('',(4.238487906186E-02,0.));
#1043 = ( GEOMETRIC_REPRESENTATION_CONTEXT(2) 
PARAMETRIC_REPRESENTATION_CONTEXT() REPRESENTATION_CONTEXT('2D SPACE',''
  ) );
#1044 = PCURVE('',#44,#1045);
#1045 = DEFINITIONAL_REPRESENTATION('',(#1046),#1053);
#1046 = B_SPLINE_CURVE_WITH_KNOTS('',3,(#1047,#1048,#1049,#1050,#1051,
    #1052),.UNSPECIFIED.,.F.,.F.,(4,2,4),(6.490740907899E-18,
    2.367194614941E-04,4.734389229883E-04),.UNSPECIFIED.);
#1047 = CARTESIAN_POINT('',(-0.304727077128,25.393725261321));
#1048 = CARTESIAN_POINT('',(-0.224694318216,25.39498685949));
#1049 = CARTESIAN_POINT('',(-0.145917393107,25.36300939568));
#1050 = CARTESIAN_POINT('',(-3.329392166267E-02,25.252176095767));
#1051 = CARTESIAN_POINT('',(-3.19744231092E-14,25.173716149915));
#1052 = CARTESIAN_POINT('',(0.,25.093674112297));
#1053 = ( GEOMETRIC_REPRESENTATION_CONTEXT(2) 
PARAMETRIC_REPRESENTATION_CONTEXT() REPRESENTATION_CONTEXT('2D SPACE',''
  ) );
#1054 = ORIENTED_EDGE('',*,*,#937,.F.);
#1055 = ORIENTED_EDGE('',*,*,#1056,.F.);
#1056 = EDGE_CURVE('',#338,#870,#1057,.T.);
#1057 = SURFACE_CURVE('',#1058,(#1067,#1096),.PCURVE_S1.);
#1058 = B_SPLINE_CURVE_WITH_KNOTS('',3,(#1059,#1060,#1061,#1062,#1063,
    #1064,#1065,#1066),.UNSPECIFIED.,.F.,.F.,(4,2,2,4),(
    -3.467905562048E-06,2.823028503345E-04,4.251882282828E-04,
    5.680736062311E-04),.UNSPECIFIED.);
#1059 = CARTESIAN_POINT('',(9.885093570928,-3.660828949549E-02,
    -27.69906990457));
#1060 = CARTESIAN_POINT('',(9.95018846862,-9.493432117007E-02,
    -27.73694727242));
#1061 = CARTESIAN_POINT('',(10.016377584964,-0.167014580533,
    -27.75581224278));
#1062 = CARTESIAN_POINT('',(10.098834188156,-0.283467367889,
    -27.73828506419));
#1063 = CARTESIAN_POINT('',(10.12336525867,-0.323733844649,
    -27.72441801421));
#1064 = CARTESIAN_POINT('',(10.15806366057,-0.39931209818,
    -27.67612930258));
#1065 = CARTESIAN_POINT('',(10.167529604787,-0.433778098681,
    -27.6416332065));
#1066 = CARTESIAN_POINT('',(10.165572840613,-0.45841331102,
    -27.59985823739));
#1067 = PCURVE('',#355,#1068);
#1068 = DEFINITIONAL_REPRESENTATION('',(#1069),#1095);
#1069 = B_SPLINE_CURVE_WITH_KNOTS('',3,(#1070,#1071,#1072,#1073,#1074,
    #1075,#1076,#1077,#1078,#1079,#1080,#1081,#1082,#1083,#1084,#1085,
    #1086,#1087,#1088,#1089,#1090,#1091,#1092,#1093,#1094),
  .UNSPECIFIED.,.F.,.F.,(4,1,1,1,1,1,1,1,1,1,1,1,1,1,1,1,1,1,1,1,1,1,4),
  (-3.467905562048E-06,2.251125406491E-05,4.849041369187E-05,
    7.446957331883E-05,1.004487329458E-04,1.264278925728E-04,
    1.524070521997E-04,1.783862118267E-04,2.043653714536E-04,
    2.303445310806E-04,2.563236907076E-04,2.823028503345E-04,
    3.082820099615E-04,3.342611695884E-04,3.602403292154E-04,
    3.862194888424E-04,4.121986484693E-04,4.381778080963E-04,
    4.641569677232E-04,4.901361273502E-04,5.161152869772E-04,
    5.420944466041E-04,5.680736062311E-04),.UNSPECIFIED.);
#1070 = CARTESIAN_POINT('',(1.313967315917E-02,1.659391701752E-04));
#1071 = CARTESIAN_POINT('',(1.313375220603E-02,1.475261212296E-02));
#1072 = CARTESIAN_POINT('',(1.312189277524E-02,4.357692619291E-02));
#1073 = CARTESIAN_POINT('',(1.310410647597E-02,8.59131155809E-02));
#1074 = CARTESIAN_POINT('',(1.308637845056E-02,0.127495047157));
#1075 = CARTESIAN_POINT('',(1.306876410314E-02,0.168471509423));
#1076 = CARTESIAN_POINT('',(1.305131882421E-02,0.208995291348));
#1077 = CARTESIAN_POINT('',(1.303409800238E-02,0.249224882676));
#1078 = CARTESIAN_POINT('',(1.301715698576E-02,0.289325849274));
#1079 = CARTESIAN_POINT('',(1.300055124069E-02,0.329472454379));
#1080 = CARTESIAN_POINT('',(1.298433576938E-02,0.369848109872));
#1081 = CARTESIAN_POINT('',(1.296856729282E-02,0.410649683359));
#1082 = CARTESIAN_POINT('',(1.295329611158E-02,0.452076725678));
#1083 = CARTESIAN_POINT('',(1.293859648839E-02,0.494375861619));
#1084 = CARTESIAN_POINT('',(1.2924639581E-02,0.537658196011));
#1085 = CARTESIAN_POINT('',(1.291157293098E-02,0.582045196763));
#1086 = CARTESIAN_POINT('',(1.289954924632E-02,0.627727816441));
#1087 = CARTESIAN_POINT('',(1.288872415431E-02,0.674935183503));
#1088 = CARTESIAN_POINT('',(1.287923644555E-02,0.724051688286));
#1089 = CARTESIAN_POINT('',(1.287139062409E-02,0.774995427377));
#1090 = CARTESIAN_POINT('',(1.286529561192E-02,0.827855986947));
#1091 = CARTESIAN_POINT('',(1.286108398697E-02,0.882759553717));
#1092 = CARTESIAN_POINT('',(1.28588820299E-02,0.939876906523));
#1093 = CARTESIAN_POINT('',(1.285883920961E-02,0.97962887047));
#1094 = CARTESIAN_POINT('',(1.28591953457E-02,0.999966751131));
#1095 = ( GEOMETRIC_REPRESENTATION_CONTEXT(2) 
PARAMETRIC_REPRESENTATION_CONTEXT() REPRESENTATION_CONTEXT('2D SPACE',''
  ) );
#1096 = PCURVE('',#419,#1097);
#1097 = DEFINITIONAL_REPRESENTATION('',(#1098),#1124);
#1098 = B_SPLINE_CURVE_WITH_KNOTS('',3,(#1099,#1100,#1101,#1102,#1103,
    #1104,#1105,#1106,#1107,#1108,#1109,#1110,#1111,#1112,#1113,#1114,
    #1115,#1116,#1117,#1118,#1119,#1120,#1121,#1122,#1123),
  .UNSPECIFIED.,.F.,.F.,(4,1,1,1,1,1,1,1,1,1,1,1,1,1,1,1,1,1,1,1,1,1,4),
  (-3.467905562048E-06,2.251125406491E-05,4.849041369187E-05,
    7.446957331883E-05,1.004487329458E-04,1.264278925728E-04,
    1.524070521997E-04,1.783862118267E-04,2.043653714536E-04,
    2.303445310806E-04,2.563236907076E-04,2.823028503345E-04,
    3.082820099615E-04,3.342611695884E-04,3.602403292154E-04,
    3.862194888424E-04,4.121986484693E-04,4.381778080963E-04,
    4.641569677232E-04,4.901361273502E-04,5.161152869772E-04,
    5.420944466041E-04,5.680736062311E-04),.UNSPECIFIED.);
#1099 = CARTESIAN_POINT('',(2.565634000432,-22.5421076844));
#1100 = CARTESIAN_POINT('',(2.586709934049,-22.54802540237));
#1101 = CARTESIAN_POINT('',(2.628921406567,-22.55987892458));
#1102 = CARTESIAN_POINT('',(2.692475723213,-22.57765796431));
#1103 = CARTESIAN_POINT('',(2.756318261083,-22.59538025827));
#1104 = CARTESIAN_POINT('',(2.82052525888,-22.61299030362));
#1105 = CARTESIAN_POINT('',(2.88519109361,-22.63043259993));
#1106 = CARTESIAN_POINT('',(2.950431283541,-22.64765163786));
#1107 = CARTESIAN_POINT('',(3.016382041979,-22.66459194117));
#1108 = CARTESIAN_POINT('',(3.083200435766,-22.68119791024));
#1109 = CARTESIAN_POINT('',(3.15106173371,-22.69741440584));
#1110 = CARTESIAN_POINT('',(3.220162600078,-22.71318457049));
#1111 = CARTESIAN_POINT('',(3.290697573213,-22.72845795939));
#1112 = CARTESIAN_POINT('',(3.362928583702,-22.74316019532));
#1113 = CARTESIAN_POINT('',(3.436865116859,-22.75712003923));
#1114 = CARTESIAN_POINT('',(3.512507390092,-22.77018982761));
#1115 = CARTESIAN_POINT('',(3.589942206803,-22.78221673317));
#1116 = CARTESIAN_POINT('',(3.669283025993,-22.79304500819));
#1117 = CARTESIAN_POINT('',(3.750847774754,-22.80253575043));
#1118 = CARTESIAN_POINT('',(3.834122958677,-22.81038435886));
#1119 = CARTESIAN_POINT('',(3.918845044144,-22.81648181716));
#1120 = CARTESIAN_POINT('',(4.004764053471,-22.82069549006));
#1121 = CARTESIAN_POINT('',(4.091664193692,-22.82289907313));
#1122 = CARTESIAN_POINT('',(4.150184098927,-22.82294272939));
#1123 = CARTESIAN_POINT('',(4.179568322285,-22.82258695408));
#1124 = ( GEOMETRIC_REPRESENTATION_CONTEXT(2) 
PARAMETRIC_REPRESENTATION_CONTEXT() REPRESENTATION_CONTEXT('2D SPACE',''
  ) );
#1125 = ORIENTED_EDGE('',*,*,#337,.F.);
#1126 = ADVANCED_FACE('',(#1127),#419,.T.);
#1127 = FACE_BOUND('',#1128,.T.);
#1128 = EDGE_LOOP('',(#1129,#1199,#1200,#1201,#1202,#1223));
#1129 = ORIENTED_EDGE('',*,*,#1130,.F.);
#1130 = EDGE_CURVE('',#404,#640,#1131,.T.);
#1131 = SURFACE_CURVE('',#1132,(#1141,#1170),.PCURVE_S1.);
#1132 = B_SPLINE_CURVE_WITH_KNOTS('',3,(#1133,#1134,#1135,#1136,#1137,
    #1138,#1139,#1140),.UNSPECIFIED.,.F.,.F.,(4,2,2,4),(
    -3.46790556206E-06,2.823028503345E-04,4.251882282828E-04,
    5.680736062311E-04),.UNSPECIFIED.);
#1133 = CARTESIAN_POINT('',(-9.885093570928,-3.660828949549E-02,
    -27.69906990457));
#1134 = CARTESIAN_POINT('',(-9.950188468624,-9.493432116704E-02,
    -27.73694727242));
#1135 = CARTESIAN_POINT('',(-10.01637758496,-0.167014580533,
    -27.75581224278));
#1136 = CARTESIAN_POINT('',(-10.09883418815,-0.283467367889,
    -27.73828506419));
#1137 = CARTESIAN_POINT('',(-10.12336525867,-0.323733844649,
    -27.72441801421));
#1138 = CARTESIAN_POINT('',(-10.15806366057,-0.39931209818,
    -27.67612930258));
#1139 = CARTESIAN_POINT('',(-10.16752960478,-0.433778098681,
    -27.6416332065));
#1140 = CARTESIAN_POINT('',(-10.16557284061,-0.45841331102,
    -27.59985823739));
#1141 = PCURVE('',#419,#1142);
#1142 = DEFINITIONAL_REPRESENTATION('',(#1143),#1169);
#1143 = B_SPLINE_CURVE_WITH_KNOTS('',3,(#1144,#1145,#1146,#1147,#1148,
    #1149,#1150,#1151,#1152,#1153,#1154,#1155,#1156,#1157,#1158,#1159,
    #1160,#1161,#1162,#1163,#1164,#1165,#1166,#1167,#1168),
  .UNSPECIFIED.,.F.,.F.,(4,1,1,1,1,1,1,1,1,1,1,1,1,1,1,1,1,1,1,1,1,1,4),
  (-3.46790556206E-06,2.25112540649E-05,4.849041369186E-05,
    7.446957331882E-05,1.004487329458E-04,1.264278925727E-04,
    1.524070521997E-04,1.783862118267E-04,2.043653714536E-04,
    2.303445310806E-04,2.563236907075E-04,2.823028503345E-04,
    3.082820099615E-04,3.342611695884E-04,3.602403292154E-04,
    3.862194888424E-04,4.121986484693E-04,4.381778080963E-04,
    4.641569677232E-04,4.901361273502E-04,5.161152869772E-04,
    5.420944466041E-04,5.680736062311E-04),.UNSPECIFIED.);
#1144 = CARTESIAN_POINT('',(2.565634000432,-2.771920542545));
#1145 = CARTESIAN_POINT('',(2.586709934048,-2.766002824573));
#1146 = CARTESIAN_POINT('',(2.628921406564,-2.754149302365));
#1147 = CARTESIAN_POINT('',(2.692475723208,-2.736370262634));
#1148 = CARTESIAN_POINT('',(2.756318261078,-2.718647968675));
#1149 = CARTESIAN_POINT('',(2.820525258875,-2.701037923316));
#1150 = CARTESIAN_POINT('',(2.885191093606,-2.683595627013));
#1151 = CARTESIAN_POINT('',(2.950431283537,-2.666376589078));
#1152 = CARTESIAN_POINT('',(3.016382041977,-2.649436285768));
#1153 = CARTESIAN_POINT('',(3.083200435764,-2.632830316706));
#1154 = CARTESIAN_POINT('',(3.15106173371,-2.616613821105));
#1155 = CARTESIAN_POINT('',(3.220162600078,-2.600843656448));
#1156 = CARTESIAN_POINT('',(3.290697573213,-2.585570267555));
#1157 = CARTESIAN_POINT('',(3.362928583702,-2.570868031622));
#1158 = CARTESIAN_POINT('',(3.436865116859,-2.556908187712));
#1159 = CARTESIAN_POINT('',(3.512507390092,-2.543838399332));
#1160 = CARTESIAN_POINT('',(3.589942206803,-2.531811493775));
#1161 = CARTESIAN_POINT('',(3.669283025993,-2.52098321875));
#1162 = CARTESIAN_POINT('',(3.750847774754,-2.511492476517));
#1163 = CARTESIAN_POINT('',(3.834122958677,-2.503643868082));
#1164 = CARTESIAN_POINT('',(3.918845044144,-2.497546409784));
#1165 = CARTESIAN_POINT('',(4.004764053471,-2.493332736887));
#1166 = CARTESIAN_POINT('',(4.091664193693,-2.49112915381));
#1167 = CARTESIAN_POINT('',(4.150184098927,-2.491085497556));
#1168 = CARTESIAN_POINT('',(4.179568322285,-2.491441272861));
#1169 = ( GEOMETRIC_REPRESENTATION_CONTEXT(2) 
PARAMETRIC_REPRESENTATION_CONTEXT() REPRESENTATION_CONTEXT('2D SPACE',''
  ) );
#1170 = PCURVE('',#447,#1171);
#1171 = DEFINITIONAL_REPRESENTATION('',(#1172),#1198);
#1172 = B_SPLINE_CURVE_WITH_KNOTS('',3,(#1173,#1174,#1175,#1176,#1177,
    #1178,#1179,#1180,#1181,#1182,#1183,#1184,#1185,#1186,#1187,#1188,
    #1189,#1190,#1191,#1192,#1193,#1194,#1195,#1196,#1197),
  .UNSPECIFIED.,.F.,.F.,(4,1,1,1,1,1,1,1,1,1,1,1,1,1,1,1,1,1,1,1,1,1,4),
  (-3.46790556206E-06,2.25112540649E-05,4.849041369186E-05,
    7.446957331882E-05,1.004487329458E-04,1.264278925727E-04,
    1.524070521997E-04,1.783862118267E-04,2.043653714536E-04,
    2.303445310806E-04,2.563236907075E-04,2.823028503345E-04,
    3.082820099615E-04,3.342611695884E-04,3.602403292154E-04,
    3.862194888424E-04,4.121986484693E-04,4.381778080963E-04,
    4.641569677232E-04,4.901361273502E-04,5.161152869772E-04,
    5.420944466041E-04,5.680736062311E-04),.UNSPECIFIED.);
#1173 = CARTESIAN_POINT('',(2.952821117053E-02,1.659121612037E-04));
#1174 = CARTESIAN_POINT('',(2.953413166498E-02,1.47525859686E-02));
#1175 = CARTESIAN_POINT('',(2.954599017606E-02,4.357690170642E-02));
#1176 = CARTESIAN_POINT('',(2.956377509312E-02,8.591309346593E-02));
#1177 = CARTESIAN_POINT('',(2.958150173796E-02,0.127495027276));
#1178 = CARTESIAN_POINT('',(2.959911471079E-02,0.168471491635));
#1179 = CARTESIAN_POINT('',(2.96165586255E-02,0.208995275509));
#1180 = CARTESIAN_POINT('',(2.963377809788E-02,0.249224868645));
#1181 = CARTESIAN_POINT('',(2.965071778429E-02,0.289325836909));
#1182 = CARTESIAN_POINT('',(2.966732222286E-02,0.329472443545));
#1183 = CARTESIAN_POINT('',(2.968353641589E-02,0.369848100437));
#1184 = CARTESIAN_POINT('',(2.969930364703E-02,0.410649675199));
#1185 = CARTESIAN_POINT('',(2.971457361988E-02,0.452076718674));
#1186 = CARTESIAN_POINT('',(2.972927207783E-02,0.494375855657));
#1187 = CARTESIAN_POINT('',(2.974322787695E-02,0.53765819098));
#1188 = CARTESIAN_POINT('',(2.975629348771E-02,0.582045192558));
#1189 = CARTESIAN_POINT('',(2.976831621461E-02,0.627727812965));
#1190 = CARTESIAN_POINT('',(2.977914044318E-02,0.674935180668));
#1191 = CARTESIAN_POINT('',(2.978862739424E-02,0.724051686017));
#1192 = CARTESIAN_POINT('',(2.979647258848E-02,0.774995425608));
#1193 = CARTESIAN_POINT('',(2.980256711301E-02,0.827855985629));
#1194 = CARTESIAN_POINT('',(2.980677840083E-02,0.882759552818));
#1195 = CARTESIAN_POINT('',(2.980898018163E-02,0.939876906032));
#1196 = CARTESIAN_POINT('',(2.980902299856E-02,0.97962887026));
#1197 = CARTESIAN_POINT('',(2.980866689105E-02,0.999966751067));
#1198 = ( GEOMETRIC_REPRESENTATION_CONTEXT(2) 
PARAMETRIC_REPRESENTATION_CONTEXT() REPRESENTATION_CONTEXT('2D SPACE',''
  ) );
#1199 = ORIENTED_EDGE('',*,*,#403,.F.);
#1200 = ORIENTED_EDGE('',*,*,#1056,.T.);
#1201 = ORIENTED_EDGE('',*,*,#869,.F.);
#1202 = ORIENTED_EDGE('',*,*,#1203,.F.);
#1203 = EDGE_CURVE('',#708,#848,#1204,.T.);
#1204 = SURFACE_CURVE('',#1205,(#1209,#1216),.PCURVE_S1.);
#1205 = LINE('',#1206,#1207);
#1206 = CARTESIAN_POINT('',(-40.,-0.5,-27.44746873419));
#1207 = VECTOR('',#1208,1.);
#1208 = DIRECTION('',(1.,-0.,-0.));
#1209 = PCURVE('',#419,#1210);
#1210 = DEFINITIONAL_REPRESENTATION('',(#1211),#1215);
#1211 = LINE('',#1212,#1213);
#1212 = CARTESIAN_POINT('',(4.712388980385,27.342985886527));
#1213 = VECTOR('',#1214,1.);
#1214 = DIRECTION('',(0.,-1.));
#1215 = ( GEOMETRIC_REPRESENTATION_CONTEXT(2) 
PARAMETRIC_REPRESENTATION_CONTEXT() REPRESENTATION_CONTEXT('2D SPACE',''
  ) );
#1216 = PCURVE('',#126,#1217);
#1217 = DEFINITIONAL_REPRESENTATION('',(#1218),#1222);
#1218 = LINE('',#1219,#1220);
#1219 = CARTESIAN_POINT('',(19.14746873419,0.));
#1220 = VECTOR('',#1221,1.);
#1221 = DIRECTION('',(0.,1.));
#1222 = ( GEOMETRIC_REPRESENTATION_CONTEXT(2) 
PARAMETRIC_REPRESENTATION_CONTEXT() REPRESENTATION_CONTEXT('2D SPACE',''
  ) );
#1223 = ORIENTED_EDGE('',*,*,#707,.F.);
#1224 = ADVANCED_FACE('',(#1225),#447,.T.);
#1225 = FACE_BOUND('',#1226,.T.);
#1226 = EDGE_LOOP('',(#1227,#1276,#1277,#1278));
#1227 = ORIENTED_EDGE('',*,*,#1228,.F.);
#1228 = EDGE_CURVE('',#308,#593,#1229,.T.);
#1229 = SURFACE_CURVE('',#1230,(#1237,#1266),.PCURVE_S1.);
#1230 = B_SPLINE_CURVE_WITH_KNOTS('',3,(#1231,#1232,#1233,#1234,#1235,
    #1236),.UNSPECIFIED.,.F.,.F.,(4,2,4),(2.818592028052E-17,
    2.36719346814E-04,4.73438693628E-04),.UNSPECIFIED.);
#1231 = CARTESIAN_POINT('',(-11.19303845179,24.463477480881,
    -11.7885281713));
#1232 = CARTESIAN_POINT('',(-11.27308085037,24.46347748088,
    -11.7885281713));
#1233 = CARTESIAN_POINT('',(-11.35135009588,24.445406073854,
    -11.76070064477));
#1234 = CARTESIAN_POINT('',(-11.46226537762,24.384108602762,
    -11.66631081666));
#1235 = CARTESIAN_POINT('',(-11.49435120472,24.341100382532,
    -11.60008396517));
#1236 = CARTESIAN_POINT('',(-11.49308960081,24.297511219651,
    -11.53296254045));
#1237 = PCURVE('',#447,#1238);
#1238 = DEFINITIONAL_REPRESENTATION('',(#1239),#1265);
#1239 = B_SPLINE_CURVE_WITH_KNOTS('',3,(#1240,#1241,#1242,#1243,#1244,
    #1245,#1246,#1247,#1248,#1249,#1250,#1251,#1252,#1253,#1254,#1255,
    #1256,#1257,#1258,#1259,#1260,#1261,#1262,#1263,#1264),
  .UNSPECIFIED.,.F.,.F.,(4,1,1,1,1,1,1,1,1,1,1,1,1,1,1,1,1,1,1,1,1,1,4),
  (2.818592028052E-17,2.151994061948E-05,4.303988123893E-05,
    6.455982185838E-05,8.607976247784E-05,1.075997030973E-04,
    1.291196437167E-04,1.506395843362E-04,1.721595249556E-04,
    1.936794655751E-04,2.151994061945E-04,2.36719346814E-04,
    2.582392874334E-04,2.797592280529E-04,3.012791686724E-04,
    3.227991092918E-04,3.443190499113E-04,3.658389905307E-04,
    3.873589311502E-04,4.088788717696E-04,4.303988123891E-04,
    4.519187530085E-04,4.73438693628E-04),.QUASI_UNIFORM_KNOTS.);
#1240 = CARTESIAN_POINT('',(2.842319297804E-04,0.));
#1241 = CARTESIAN_POINT('',(2.840552822426E-04,1.700869981104E-02));
#1242 = CARTESIAN_POINT('',(2.837027091998E-04,5.045378497176E-02));
#1243 = CARTESIAN_POINT('',(2.831783168358E-04,9.912948252739E-02));
#1244 = CARTESIAN_POINT('',(2.826606929727E-04,0.146553346372));
#1245 = CARTESIAN_POINT('',(2.821521382151E-04,0.192912681515));
#1246 = CARTESIAN_POINT('',(2.816549526714E-04,0.238372033144));
#1247 = CARTESIAN_POINT('',(2.811714361675E-04,0.283075262307));
#1248 = CARTESIAN_POINT('',(2.807038873471E-04,0.327153936439));
#1249 = CARTESIAN_POINT('',(2.802546072459E-04,0.37073268696));
#1250 = CARTESIAN_POINT('',(2.798258861206E-04,0.413936157823));
#1251 = CARTESIAN_POINT('',(2.794200528181E-04,0.456889586777));
#1252 = CARTESIAN_POINT('',(2.790392907683E-04,0.499741254664));
#1253 = CARTESIAN_POINT('',(2.786863249735E-04,0.542602805604));
#1254 = CARTESIAN_POINT('',(2.783626703765E-04,0.585583925012));
#1255 = CARTESIAN_POINT('',(2.780693002789E-04,0.628830276362));
#1256 = CARTESIAN_POINT('',(2.778073333028E-04,0.672463923355));
#1257 = CARTESIAN_POINT('',(2.775778493661E-04,0.716605875905));
#1258 = CARTESIAN_POINT('',(2.773819390398E-04,0.761376775073));
#1259 = CARTESIAN_POINT('',(2.772206903738E-04,0.8069039549));
#1260 = CARTESIAN_POINT('',(2.770951924746E-04,0.853326916019));
#1261 = CARTESIAN_POINT('',(2.770065346146E-04,0.900805864227));
#1262 = CARTESIAN_POINT('',(2.769558064699E-04,0.949523857476));
#1263 = CARTESIAN_POINT('',(2.769480010391E-04,0.982986116912));
#1264 = CARTESIAN_POINT('',(2.769507833418E-04,1.));
#1265 = ( GEOMETRIC_REPRESENTATION_CONTEXT(2) 
PARAMETRIC_REPRESENTATION_CONTEXT() REPRESENTATION_CONTEXT('2D SPACE',''
  ) );
#1266 = PCURVE('',#44,#1267);
#1267 = DEFINITIONAL_REPRESENTATION('',(#1268),#1275);
#1268 = B_SPLINE_CURVE_WITH_KNOTS('',3,(#1269,#1270,#1271,#1272,#1273,
    #1274),.UNSPECIFIED.,.F.,.F.,(4,2,4),(2.818592028052E-17,
    2.36719346814E-04,4.73438693628E-04),.UNSPECIFIED.);
#1269 = CARTESIAN_POINT('',(0.,2.707597208716));
#1270 = CARTESIAN_POINT('',(-2.13162820728E-14,2.627554810127));
#1271 = CARTESIAN_POINT('',(-3.318052116194E-02,2.549285564623));
#1272 = CARTESIAN_POINT('',(-0.145727487412,2.438370282884));
#1273 = CARTESIAN_POINT('',(-0.224693954126,2.40628445578));
#1274 = CARTESIAN_POINT('',(-0.304727077128,2.407546059692));
#1275 = ( GEOMETRIC_REPRESENTATION_CONTEXT(2) 
PARAMETRIC_REPRESENTATION_CONTEXT() REPRESENTATION_CONTEXT('2D SPACE',''
  ) );
#1276 = ORIENTED_EDGE('',*,*,#431,.F.);
#1277 = ORIENTED_EDGE('',*,*,#1130,.T.);
#1278 = ORIENTED_EDGE('',*,*,#639,.F.);
#1279 = ADVANCED_FACE('',(#1280),#126,.T.);
#1280 = FACE_BOUND('',#1281,.T.);
#1281 = EDGE_LOOP('',(#1282,#1283,#1284,#1285));
#1282 = ORIENTED_EDGE('',*,*,#847,.T.);
#1283 = ORIENTED_EDGE('',*,*,#110,.F.);
#1284 = ORIENTED_EDGE('',*,*,#775,.F.);
#1285 = ORIENTED_EDGE('',*,*,#1203,.T.);
#1286 = ADVANCED_FACE('',(#1287),#238,.F.);
#1287 = FACE_BOUND('',#1288,.T.);
#1288 = EDGE_LOOP('',(#1289,#1290,#1311,#1312));
#1289 = ORIENTED_EDGE('',*,*,#222,.T.);
#1290 = ORIENTED_EDGE('',*,*,#1291,.F.);
#1291 = EDGE_CURVE('',#500,#193,#1292,.T.);
#1292 = SURFACE_CURVE('',#1293,(#1297,#1304),.PCURVE_S1.);
#1293 = LINE('',#1294,#1295);
#1294 = CARTESIAN_POINT('',(-9.,23.499006327744,-12.41486306156));
#1295 = VECTOR('',#1296,1.);
#1296 = DIRECTION('',(-0.,-0.544639035015,0.838670567945));
#1297 = PCURVE('',#238,#1298);
#1298 = DEFINITIONAL_REPRESENTATION('',(#1299),#1303);
#1299 = LINE('',#1300,#1301);
#1300 = CARTESIAN_POINT('',(0.,-9.));
#1301 = VECTOR('',#1302,1.);
#1302 = DIRECTION('',(1.,0.));
#1303 = ( GEOMETRIC_REPRESENTATION_CONTEXT(2) 
PARAMETRIC_REPRESENTATION_CONTEXT() REPRESENTATION_CONTEXT('2D SPACE',''
  ) );
#1304 = PCURVE('',#210,#1305);
#1305 = DEFINITIONAL_REPRESENTATION('',(#1306),#1310);
#1306 = LINE('',#1307,#1308);
#1307 = CARTESIAN_POINT('',(0.,0.));
#1308 = VECTOR('',#1309,1.);
#1309 = DIRECTION('',(0.838670567945,-0.544639035015));
#1310 = ( GEOMETRIC_REPRESENTATION_CONTEXT(2) 
PARAMETRIC_REPRESENTATION_CONTEXT() REPRESENTATION_CONTEXT('2D SPACE',''
  ) );
#1311 = ORIENTED_EDGE('',*,*,#497,.F.);
#1312 = ORIENTED_EDGE('',*,*,#1313,.T.);
#1313 = EDGE_CURVE('',#498,#223,#1314,.T.);
#1314 = SURFACE_CURVE('',#1315,(#1319,#1326),.PCURVE_S1.);
#1315 = LINE('',#1316,#1317);
#1316 = CARTESIAN_POINT('',(9.,23.499006327744,-12.41486306156));
#1317 = VECTOR('',#1318,1.);
#1318 = DIRECTION('',(-0.,-0.544639035015,0.838670567945));
#1319 = PCURVE('',#238,#1320);
#1320 = DEFINITIONAL_REPRESENTATION('',(#1321),#1325);
#1321 = LINE('',#1322,#1323);
#1322 = CARTESIAN_POINT('',(0.,9.));
#1323 = VECTOR('',#1324,1.);
#1324 = DIRECTION('',(1.,0.));
#1325 = ( GEOMETRIC_REPRESENTATION_CONTEXT(2) 
PARAMETRIC_REPRESENTATION_CONTEXT() REPRESENTATION_CONTEXT('2D SPACE',''
  ) );
#1326 = PCURVE('',#266,#1327);
#1327 = DEFINITIONAL_REPRESENTATION('',(#1328),#1332);
#1328 = LINE('',#1329,#1330);
#1329 = CARTESIAN_POINT('',(0.,0.));
#1330 = VECTOR('',#1331,1.);
#1331 = DIRECTION('',(-0.838670567945,-0.544639035015));
#1332 = ( GEOMETRIC_REPRESENTATION_CONTEXT(2) 
PARAMETRIC_REPRESENTATION_CONTEXT() REPRESENTATION_CONTEXT('2D SPACE',''
  ) );
#1333 = ADVANCED_FACE('',(#1334),#266,.F.);
#1334 = FACE_BOUND('',#1335,.T.);
#1335 = EDGE_LOOP('',(#1336,#1337,#1338,#1339));
#1336 = ORIENTED_EDGE('',*,*,#250,.T.);
#1337 = ORIENTED_EDGE('',*,*,#1313,.F.);
#1338 = ORIENTED_EDGE('',*,*,#568,.F.);
#1339 = ORIENTED_EDGE('',*,*,#1340,.T.);
#1340 = EDGE_CURVE('',#546,#251,#1341,.T.);
#1341 = SURFACE_CURVE('',#1342,(#1346,#1353),.PCURVE_S1.);
#1342 = LINE('',#1343,#1344);
#1343 = CARTESIAN_POINT('',(9.,22.660335759798,-12.95950209658));
#1344 = VECTOR('',#1345,1.);
#1345 = DIRECTION('',(-0.,-0.544639035015,0.838670567945));
#1346 = PCURVE('',#266,#1347);
#1347 = DEFINITIONAL_REPRESENTATION('',(#1348),#1352);
#1348 = LINE('',#1349,#1350);
#1349 = CARTESIAN_POINT('',(0.544639035015,-0.838670567945));
#1350 = VECTOR('',#1351,1.);
#1351 = DIRECTION('',(-0.838670567945,-0.544639035015));
#1352 = ( GEOMETRIC_REPRESENTATION_CONTEXT(2) 
PARAMETRIC_REPRESENTATION_CONTEXT() REPRESENTATION_CONTEXT('2D SPACE',''
  ) );
#1353 = PCURVE('',#292,#1354);
#1354 = DEFINITIONAL_REPRESENTATION('',(#1355),#1359);
#1355 = LINE('',#1356,#1357);
#1356 = CARTESIAN_POINT('',(0.,0.));
#1357 = VECTOR('',#1358,1.);
#1358 = DIRECTION('',(-1.,0.));
#1359 = ( GEOMETRIC_REPRESENTATION_CONTEXT(2) 
PARAMETRIC_REPRESENTATION_CONTEXT() REPRESENTATION_CONTEXT('2D SPACE',''
  ) );
#1360 = ADVANCED_FACE('',(#1361),#292,.F.);
#1361 = FACE_BOUND('',#1362,.T.);
#1362 = EDGE_LOOP('',(#1363,#1364,#1365,#1366));
#1363 = ORIENTED_EDGE('',*,*,#278,.T.);
#1364 = ORIENTED_EDGE('',*,*,#1340,.F.);
#1365 = ORIENTED_EDGE('',*,*,#545,.F.);
#1366 = ORIENTED_EDGE('',*,*,#1367,.T.);
#1367 = EDGE_CURVE('',#523,#195,#1368,.T.);
#1368 = SURFACE_CURVE('',#1369,(#1373,#1380),.PCURVE_S1.);
#1369 = LINE('',#1370,#1371);
#1370 = CARTESIAN_POINT('',(-9.,22.660335759798,-12.95950209658));
#1371 = VECTOR('',#1372,1.);
#1372 = DIRECTION('',(-0.,-0.544639035015,0.838670567945));
#1373 = PCURVE('',#292,#1374);
#1374 = DEFINITIONAL_REPRESENTATION('',(#1375),#1379);
#1375 = LINE('',#1376,#1377);
#1376 = CARTESIAN_POINT('',(0.,-18.));
#1377 = VECTOR('',#1378,1.);
#1378 = DIRECTION('',(-1.,0.));
#1379 = ( GEOMETRIC_REPRESENTATION_CONTEXT(2) 
PARAMETRIC_REPRESENTATION_CONTEXT() REPRESENTATION_CONTEXT('2D SPACE',''
  ) );
#1380 = PCURVE('',#210,#1381);
#1381 = DEFINITIONAL_REPRESENTATION('',(#1382),#1386);
#1382 = LINE('',#1383,#1384);
#1383 = CARTESIAN_POINT('',(-0.544639035015,-0.838670567945));
#1384 = VECTOR('',#1385,1.);
#1385 = DIRECTION('',(0.838670567945,-0.544639035015));
#1386 = ( GEOMETRIC_REPRESENTATION_CONTEXT(2) 
PARAMETRIC_REPRESENTATION_CONTEXT() REPRESENTATION_CONTEXT('2D SPACE',''
  ) );
#1387 = ADVANCED_FACE('',(#1388),#210,.F.);
#1388 = FACE_BOUND('',#1389,.T.);
#1389 = EDGE_LOOP('',(#1390,#1391,#1392,#1393));
#1390 = ORIENTED_EDGE('',*,*,#192,.T.);
#1391 = ORIENTED_EDGE('',*,*,#1367,.F.);
#1392 = ORIENTED_EDGE('',*,*,#522,.F.);
#1393 = ORIENTED_EDGE('',*,*,#1291,.T.);
#1394 = ADVANCED_FACE('',(#1395),#44,.F.);
#1395 = FACE_BOUND('',#1396,.T.);
#1396 = EDGE_LOOP('',(#1397,#1398,#1399,#1400,#1401,#1402));
#1397 = ORIENTED_EDGE('',*,*,#592,.T.);
#1398 = ORIENTED_EDGE('',*,*,#21,.F.);
#1399 = ORIENTED_EDGE('',*,*,#799,.T.);
#1400 = ORIENTED_EDGE('',*,*,#1006,.T.);
#1401 = ORIENTED_EDGE('',*,*,#307,.F.);
#1402 = ORIENTED_EDGE('',*,*,#1228,.T.);
#1403 = ( GEOMETRIC_REPRESENTATION_CONTEXT(3) 
GLOBAL_UNCERTAINTY_ASSIGNED_CONTEXT((#1407)) 
GLOBAL_UNIT_ASSIGNED_CONTEXT((#1404,#1405,#1406)) REPRESENTATION_CONTEXT
('Context #1','3D Context with UNIT and UNCERTAINTY') );
#1404 = ( LENGTH_UNIT() NAMED_UNIT(*) SI_UNIT(.MILLI.,.METRE.) );
#1405 = ( NAMED_UNIT(*) PLANE_ANGLE_UNIT() SI_UNIT($,.RADIAN.) );
#1406 = ( NAMED_UNIT(*) SI_UNIT($,.STERADIAN.) SOLID_ANGLE_UNIT() );
#1407 = UNCERTAINTY_MEASURE_WITH_UNIT(LENGTH_MEASURE(1.E-04),#1404,
  'distance_accuracy_value','confusion accuracy');
#1408 = PRODUCT_RELATED_PRODUCT_CATEGORY('part',$,(#7));
ENDSEC;
END-ISO-10303-21;
